M48
; DRILL file {KiCad (5.1.2-1)-1} date Monday, 30 September 2019 at 22:50:53
; FORMAT={3:3/ absolute / metric / suppress leading zeros}
; #@! TF.CreationDate,2019-09-30T22:50:53+01:00
; #@! TF.GenerationSoftware,Kicad,Pcbnew,(5.1.2-1)-1
FMAT,2
METRIC,TZ
T1C0.300
T2C0.400
T3C1.000
%
G90
G05
T1
X185986Y-38066
X188343Y-38052
X188839Y-45047
X189620Y-38093
X191902Y-38059
X192656Y-38808
X193491Y-41419
X194291Y-41419
X194752Y-40700
X195936Y-43196
X197495Y-56808
X199707Y-34697
X199902Y-38220
X200207Y-48225
X200794Y-52613
X201460Y-48245
X202752Y-38670
X203033Y-41869
X203268Y-48255
X203268Y-50249
X204567Y-39165
X205059Y-44983
X205287Y-39615
X206091Y-44995
X206120Y-39188
X206917Y-39618
X207838Y-44523
X208768Y-44450
X209283Y-45097
X209406Y-34718
X209544Y-37231
X209634Y-36414
X209946Y-45744
X210706Y-61287
X210732Y-47638
X211357Y-48152
X211384Y-53820
X211937Y-43834
X212814Y-44428
X213323Y-43140
X214311Y-37874
X215350Y-44995
X215672Y-37972
X216430Y-45008
X217946Y-50249
X218492Y-51758
X218605Y-44683
X220193Y-52617
X220333Y-40576
X221032Y-43701
X221094Y-39979
X221466Y-52460
X222503Y-41191
X222613Y-43222
X223023Y-41804
X223378Y-34182
X223683Y-43036
X224002Y-44333
X225103Y-45000
X225882Y-44516
X226792Y-38065
X228877Y-48237
X229571Y-42368
T2
X209469Y-49497
T3
X201270Y-74397
X193650Y-76937
X150622Y-89726
X230378Y-74422
X143002Y-77026
X176022Y-79553
X237998Y-76962
X143002Y-82106
X143002Y-79566
X237998Y-79502
X143002Y-94806
X150622Y-92266
X162052Y-74473
X176022Y-77013
X201270Y-79477
X150622Y-87186
X193650Y-74397
X201270Y-76937
X230378Y-97282
X143002Y-74473
X143002Y-92266
X237998Y-82042
X168402Y-97346
X237998Y-74422
X143002Y-97333
X150622Y-94806
X143002Y-89726
X143002Y-87186
X193612Y-97346
X150622Y-82106
X230378Y-82042
X168402Y-74473
X150622Y-77026
X168402Y-77013
X230378Y-76962
X150622Y-97346
X150622Y-79566
X150622Y-74473
T0
M30
