G04 #@! TF.GenerationSoftware,KiCad,Pcbnew,(5.1.2-1)-1*
G04 #@! TF.CreationDate,2019-09-30T22:51:03+01:00*
G04 #@! TF.ProjectId,DRAM Board,4452414d-2042-46f6-9172-642e6b696361,rev?*
G04 #@! TF.SameCoordinates,Original*
G04 #@! TF.FileFunction,Paste,Top*
G04 #@! TF.FilePolarity,Positive*
%FSLAX46Y46*%
G04 Gerber Fmt 4.6, Leading zero omitted, Abs format (unit mm)*
G04 Created by KiCad (PCBNEW (5.1.2-1)-1) date 2019-09-30 22:51:03*
%MOMM*%
%LPD*%
G04 APERTURE LIST*
%ADD10C,0.100000*%
%ADD11C,1.425000*%
%ADD12R,0.500000X2.200000*%
G04 APERTURE END LIST*
D10*
G36*
X191721504Y-48910204D02*
G01*
X191745773Y-48913804D01*
X191769571Y-48919765D01*
X191792671Y-48928030D01*
X191814849Y-48938520D01*
X191835893Y-48951133D01*
X191855598Y-48965747D01*
X191873777Y-48982223D01*
X191890253Y-49000402D01*
X191904867Y-49020107D01*
X191917480Y-49041151D01*
X191927970Y-49063329D01*
X191936235Y-49086429D01*
X191942196Y-49110227D01*
X191945796Y-49134496D01*
X191947000Y-49159000D01*
X191947000Y-50409000D01*
X191945796Y-50433504D01*
X191942196Y-50457773D01*
X191936235Y-50481571D01*
X191927970Y-50504671D01*
X191917480Y-50526849D01*
X191904867Y-50547893D01*
X191890253Y-50567598D01*
X191873777Y-50585777D01*
X191855598Y-50602253D01*
X191835893Y-50616867D01*
X191814849Y-50629480D01*
X191792671Y-50639970D01*
X191769571Y-50648235D01*
X191745773Y-50654196D01*
X191721504Y-50657796D01*
X191697000Y-50659000D01*
X190772000Y-50659000D01*
X190747496Y-50657796D01*
X190723227Y-50654196D01*
X190699429Y-50648235D01*
X190676329Y-50639970D01*
X190654151Y-50629480D01*
X190633107Y-50616867D01*
X190613402Y-50602253D01*
X190595223Y-50585777D01*
X190578747Y-50567598D01*
X190564133Y-50547893D01*
X190551520Y-50526849D01*
X190541030Y-50504671D01*
X190532765Y-50481571D01*
X190526804Y-50457773D01*
X190523204Y-50433504D01*
X190522000Y-50409000D01*
X190522000Y-49159000D01*
X190523204Y-49134496D01*
X190526804Y-49110227D01*
X190532765Y-49086429D01*
X190541030Y-49063329D01*
X190551520Y-49041151D01*
X190564133Y-49020107D01*
X190578747Y-49000402D01*
X190595223Y-48982223D01*
X190613402Y-48965747D01*
X190633107Y-48951133D01*
X190654151Y-48938520D01*
X190676329Y-48928030D01*
X190699429Y-48919765D01*
X190723227Y-48913804D01*
X190747496Y-48910204D01*
X190772000Y-48909000D01*
X191697000Y-48909000D01*
X191721504Y-48910204D01*
X191721504Y-48910204D01*
G37*
D11*
X191234500Y-49784000D03*
D10*
G36*
X194696504Y-48910204D02*
G01*
X194720773Y-48913804D01*
X194744571Y-48919765D01*
X194767671Y-48928030D01*
X194789849Y-48938520D01*
X194810893Y-48951133D01*
X194830598Y-48965747D01*
X194848777Y-48982223D01*
X194865253Y-49000402D01*
X194879867Y-49020107D01*
X194892480Y-49041151D01*
X194902970Y-49063329D01*
X194911235Y-49086429D01*
X194917196Y-49110227D01*
X194920796Y-49134496D01*
X194922000Y-49159000D01*
X194922000Y-50409000D01*
X194920796Y-50433504D01*
X194917196Y-50457773D01*
X194911235Y-50481571D01*
X194902970Y-50504671D01*
X194892480Y-50526849D01*
X194879867Y-50547893D01*
X194865253Y-50567598D01*
X194848777Y-50585777D01*
X194830598Y-50602253D01*
X194810893Y-50616867D01*
X194789849Y-50629480D01*
X194767671Y-50639970D01*
X194744571Y-50648235D01*
X194720773Y-50654196D01*
X194696504Y-50657796D01*
X194672000Y-50659000D01*
X193747000Y-50659000D01*
X193722496Y-50657796D01*
X193698227Y-50654196D01*
X193674429Y-50648235D01*
X193651329Y-50639970D01*
X193629151Y-50629480D01*
X193608107Y-50616867D01*
X193588402Y-50602253D01*
X193570223Y-50585777D01*
X193553747Y-50567598D01*
X193539133Y-50547893D01*
X193526520Y-50526849D01*
X193516030Y-50504671D01*
X193507765Y-50481571D01*
X193501804Y-50457773D01*
X193498204Y-50433504D01*
X193497000Y-50409000D01*
X193497000Y-49159000D01*
X193498204Y-49134496D01*
X193501804Y-49110227D01*
X193507765Y-49086429D01*
X193516030Y-49063329D01*
X193526520Y-49041151D01*
X193539133Y-49020107D01*
X193553747Y-49000402D01*
X193570223Y-48982223D01*
X193588402Y-48965747D01*
X193608107Y-48951133D01*
X193629151Y-48938520D01*
X193651329Y-48928030D01*
X193674429Y-48919765D01*
X193698227Y-48913804D01*
X193722496Y-48910204D01*
X193747000Y-48909000D01*
X194672000Y-48909000D01*
X194696504Y-48910204D01*
X194696504Y-48910204D01*
G37*
D11*
X194209500Y-49784000D03*
D10*
G36*
X198071504Y-48910204D02*
G01*
X198095773Y-48913804D01*
X198119571Y-48919765D01*
X198142671Y-48928030D01*
X198164849Y-48938520D01*
X198185893Y-48951133D01*
X198205598Y-48965747D01*
X198223777Y-48982223D01*
X198240253Y-49000402D01*
X198254867Y-49020107D01*
X198267480Y-49041151D01*
X198277970Y-49063329D01*
X198286235Y-49086429D01*
X198292196Y-49110227D01*
X198295796Y-49134496D01*
X198297000Y-49159000D01*
X198297000Y-50409000D01*
X198295796Y-50433504D01*
X198292196Y-50457773D01*
X198286235Y-50481571D01*
X198277970Y-50504671D01*
X198267480Y-50526849D01*
X198254867Y-50547893D01*
X198240253Y-50567598D01*
X198223777Y-50585777D01*
X198205598Y-50602253D01*
X198185893Y-50616867D01*
X198164849Y-50629480D01*
X198142671Y-50639970D01*
X198119571Y-50648235D01*
X198095773Y-50654196D01*
X198071504Y-50657796D01*
X198047000Y-50659000D01*
X197122000Y-50659000D01*
X197097496Y-50657796D01*
X197073227Y-50654196D01*
X197049429Y-50648235D01*
X197026329Y-50639970D01*
X197004151Y-50629480D01*
X196983107Y-50616867D01*
X196963402Y-50602253D01*
X196945223Y-50585777D01*
X196928747Y-50567598D01*
X196914133Y-50547893D01*
X196901520Y-50526849D01*
X196891030Y-50504671D01*
X196882765Y-50481571D01*
X196876804Y-50457773D01*
X196873204Y-50433504D01*
X196872000Y-50409000D01*
X196872000Y-49159000D01*
X196873204Y-49134496D01*
X196876804Y-49110227D01*
X196882765Y-49086429D01*
X196891030Y-49063329D01*
X196901520Y-49041151D01*
X196914133Y-49020107D01*
X196928747Y-49000402D01*
X196945223Y-48982223D01*
X196963402Y-48965747D01*
X196983107Y-48951133D01*
X197004151Y-48938520D01*
X197026329Y-48928030D01*
X197049429Y-48919765D01*
X197073227Y-48913804D01*
X197097496Y-48910204D01*
X197122000Y-48909000D01*
X198047000Y-48909000D01*
X198071504Y-48910204D01*
X198071504Y-48910204D01*
G37*
D11*
X197584500Y-49784000D03*
D10*
G36*
X201046504Y-48910204D02*
G01*
X201070773Y-48913804D01*
X201094571Y-48919765D01*
X201117671Y-48928030D01*
X201139849Y-48938520D01*
X201160893Y-48951133D01*
X201180598Y-48965747D01*
X201198777Y-48982223D01*
X201215253Y-49000402D01*
X201229867Y-49020107D01*
X201242480Y-49041151D01*
X201252970Y-49063329D01*
X201261235Y-49086429D01*
X201267196Y-49110227D01*
X201270796Y-49134496D01*
X201272000Y-49159000D01*
X201272000Y-50409000D01*
X201270796Y-50433504D01*
X201267196Y-50457773D01*
X201261235Y-50481571D01*
X201252970Y-50504671D01*
X201242480Y-50526849D01*
X201229867Y-50547893D01*
X201215253Y-50567598D01*
X201198777Y-50585777D01*
X201180598Y-50602253D01*
X201160893Y-50616867D01*
X201139849Y-50629480D01*
X201117671Y-50639970D01*
X201094571Y-50648235D01*
X201070773Y-50654196D01*
X201046504Y-50657796D01*
X201022000Y-50659000D01*
X200097000Y-50659000D01*
X200072496Y-50657796D01*
X200048227Y-50654196D01*
X200024429Y-50648235D01*
X200001329Y-50639970D01*
X199979151Y-50629480D01*
X199958107Y-50616867D01*
X199938402Y-50602253D01*
X199920223Y-50585777D01*
X199903747Y-50567598D01*
X199889133Y-50547893D01*
X199876520Y-50526849D01*
X199866030Y-50504671D01*
X199857765Y-50481571D01*
X199851804Y-50457773D01*
X199848204Y-50433504D01*
X199847000Y-50409000D01*
X199847000Y-49159000D01*
X199848204Y-49134496D01*
X199851804Y-49110227D01*
X199857765Y-49086429D01*
X199866030Y-49063329D01*
X199876520Y-49041151D01*
X199889133Y-49020107D01*
X199903747Y-49000402D01*
X199920223Y-48982223D01*
X199938402Y-48965747D01*
X199958107Y-48951133D01*
X199979151Y-48938520D01*
X200001329Y-48928030D01*
X200024429Y-48919765D01*
X200048227Y-48913804D01*
X200072496Y-48910204D01*
X200097000Y-48909000D01*
X201022000Y-48909000D01*
X201046504Y-48910204D01*
X201046504Y-48910204D01*
G37*
D11*
X200559500Y-49784000D03*
D10*
G36*
X191721504Y-32400204D02*
G01*
X191745773Y-32403804D01*
X191769571Y-32409765D01*
X191792671Y-32418030D01*
X191814849Y-32428520D01*
X191835893Y-32441133D01*
X191855598Y-32455747D01*
X191873777Y-32472223D01*
X191890253Y-32490402D01*
X191904867Y-32510107D01*
X191917480Y-32531151D01*
X191927970Y-32553329D01*
X191936235Y-32576429D01*
X191942196Y-32600227D01*
X191945796Y-32624496D01*
X191947000Y-32649000D01*
X191947000Y-33899000D01*
X191945796Y-33923504D01*
X191942196Y-33947773D01*
X191936235Y-33971571D01*
X191927970Y-33994671D01*
X191917480Y-34016849D01*
X191904867Y-34037893D01*
X191890253Y-34057598D01*
X191873777Y-34075777D01*
X191855598Y-34092253D01*
X191835893Y-34106867D01*
X191814849Y-34119480D01*
X191792671Y-34129970D01*
X191769571Y-34138235D01*
X191745773Y-34144196D01*
X191721504Y-34147796D01*
X191697000Y-34149000D01*
X190772000Y-34149000D01*
X190747496Y-34147796D01*
X190723227Y-34144196D01*
X190699429Y-34138235D01*
X190676329Y-34129970D01*
X190654151Y-34119480D01*
X190633107Y-34106867D01*
X190613402Y-34092253D01*
X190595223Y-34075777D01*
X190578747Y-34057598D01*
X190564133Y-34037893D01*
X190551520Y-34016849D01*
X190541030Y-33994671D01*
X190532765Y-33971571D01*
X190526804Y-33947773D01*
X190523204Y-33923504D01*
X190522000Y-33899000D01*
X190522000Y-32649000D01*
X190523204Y-32624496D01*
X190526804Y-32600227D01*
X190532765Y-32576429D01*
X190541030Y-32553329D01*
X190551520Y-32531151D01*
X190564133Y-32510107D01*
X190578747Y-32490402D01*
X190595223Y-32472223D01*
X190613402Y-32455747D01*
X190633107Y-32441133D01*
X190654151Y-32428520D01*
X190676329Y-32418030D01*
X190699429Y-32409765D01*
X190723227Y-32403804D01*
X190747496Y-32400204D01*
X190772000Y-32399000D01*
X191697000Y-32399000D01*
X191721504Y-32400204D01*
X191721504Y-32400204D01*
G37*
D11*
X191234500Y-33274000D03*
D10*
G36*
X194696504Y-32400204D02*
G01*
X194720773Y-32403804D01*
X194744571Y-32409765D01*
X194767671Y-32418030D01*
X194789849Y-32428520D01*
X194810893Y-32441133D01*
X194830598Y-32455747D01*
X194848777Y-32472223D01*
X194865253Y-32490402D01*
X194879867Y-32510107D01*
X194892480Y-32531151D01*
X194902970Y-32553329D01*
X194911235Y-32576429D01*
X194917196Y-32600227D01*
X194920796Y-32624496D01*
X194922000Y-32649000D01*
X194922000Y-33899000D01*
X194920796Y-33923504D01*
X194917196Y-33947773D01*
X194911235Y-33971571D01*
X194902970Y-33994671D01*
X194892480Y-34016849D01*
X194879867Y-34037893D01*
X194865253Y-34057598D01*
X194848777Y-34075777D01*
X194830598Y-34092253D01*
X194810893Y-34106867D01*
X194789849Y-34119480D01*
X194767671Y-34129970D01*
X194744571Y-34138235D01*
X194720773Y-34144196D01*
X194696504Y-34147796D01*
X194672000Y-34149000D01*
X193747000Y-34149000D01*
X193722496Y-34147796D01*
X193698227Y-34144196D01*
X193674429Y-34138235D01*
X193651329Y-34129970D01*
X193629151Y-34119480D01*
X193608107Y-34106867D01*
X193588402Y-34092253D01*
X193570223Y-34075777D01*
X193553747Y-34057598D01*
X193539133Y-34037893D01*
X193526520Y-34016849D01*
X193516030Y-33994671D01*
X193507765Y-33971571D01*
X193501804Y-33947773D01*
X193498204Y-33923504D01*
X193497000Y-33899000D01*
X193497000Y-32649000D01*
X193498204Y-32624496D01*
X193501804Y-32600227D01*
X193507765Y-32576429D01*
X193516030Y-32553329D01*
X193526520Y-32531151D01*
X193539133Y-32510107D01*
X193553747Y-32490402D01*
X193570223Y-32472223D01*
X193588402Y-32455747D01*
X193608107Y-32441133D01*
X193629151Y-32428520D01*
X193651329Y-32418030D01*
X193674429Y-32409765D01*
X193698227Y-32403804D01*
X193722496Y-32400204D01*
X193747000Y-32399000D01*
X194672000Y-32399000D01*
X194696504Y-32400204D01*
X194696504Y-32400204D01*
G37*
D11*
X194209500Y-33274000D03*
D10*
G36*
X222636504Y-48910204D02*
G01*
X222660773Y-48913804D01*
X222684571Y-48919765D01*
X222707671Y-48928030D01*
X222729849Y-48938520D01*
X222750893Y-48951133D01*
X222770598Y-48965747D01*
X222788777Y-48982223D01*
X222805253Y-49000402D01*
X222819867Y-49020107D01*
X222832480Y-49041151D01*
X222842970Y-49063329D01*
X222851235Y-49086429D01*
X222857196Y-49110227D01*
X222860796Y-49134496D01*
X222862000Y-49159000D01*
X222862000Y-50409000D01*
X222860796Y-50433504D01*
X222857196Y-50457773D01*
X222851235Y-50481571D01*
X222842970Y-50504671D01*
X222832480Y-50526849D01*
X222819867Y-50547893D01*
X222805253Y-50567598D01*
X222788777Y-50585777D01*
X222770598Y-50602253D01*
X222750893Y-50616867D01*
X222729849Y-50629480D01*
X222707671Y-50639970D01*
X222684571Y-50648235D01*
X222660773Y-50654196D01*
X222636504Y-50657796D01*
X222612000Y-50659000D01*
X221687000Y-50659000D01*
X221662496Y-50657796D01*
X221638227Y-50654196D01*
X221614429Y-50648235D01*
X221591329Y-50639970D01*
X221569151Y-50629480D01*
X221548107Y-50616867D01*
X221528402Y-50602253D01*
X221510223Y-50585777D01*
X221493747Y-50567598D01*
X221479133Y-50547893D01*
X221466520Y-50526849D01*
X221456030Y-50504671D01*
X221447765Y-50481571D01*
X221441804Y-50457773D01*
X221438204Y-50433504D01*
X221437000Y-50409000D01*
X221437000Y-49159000D01*
X221438204Y-49134496D01*
X221441804Y-49110227D01*
X221447765Y-49086429D01*
X221456030Y-49063329D01*
X221466520Y-49041151D01*
X221479133Y-49020107D01*
X221493747Y-49000402D01*
X221510223Y-48982223D01*
X221528402Y-48965747D01*
X221548107Y-48951133D01*
X221569151Y-48938520D01*
X221591329Y-48928030D01*
X221614429Y-48919765D01*
X221638227Y-48913804D01*
X221662496Y-48910204D01*
X221687000Y-48909000D01*
X222612000Y-48909000D01*
X222636504Y-48910204D01*
X222636504Y-48910204D01*
G37*
D11*
X222149500Y-49784000D03*
D10*
G36*
X219661504Y-48910204D02*
G01*
X219685773Y-48913804D01*
X219709571Y-48919765D01*
X219732671Y-48928030D01*
X219754849Y-48938520D01*
X219775893Y-48951133D01*
X219795598Y-48965747D01*
X219813777Y-48982223D01*
X219830253Y-49000402D01*
X219844867Y-49020107D01*
X219857480Y-49041151D01*
X219867970Y-49063329D01*
X219876235Y-49086429D01*
X219882196Y-49110227D01*
X219885796Y-49134496D01*
X219887000Y-49159000D01*
X219887000Y-50409000D01*
X219885796Y-50433504D01*
X219882196Y-50457773D01*
X219876235Y-50481571D01*
X219867970Y-50504671D01*
X219857480Y-50526849D01*
X219844867Y-50547893D01*
X219830253Y-50567598D01*
X219813777Y-50585777D01*
X219795598Y-50602253D01*
X219775893Y-50616867D01*
X219754849Y-50629480D01*
X219732671Y-50639970D01*
X219709571Y-50648235D01*
X219685773Y-50654196D01*
X219661504Y-50657796D01*
X219637000Y-50659000D01*
X218712000Y-50659000D01*
X218687496Y-50657796D01*
X218663227Y-50654196D01*
X218639429Y-50648235D01*
X218616329Y-50639970D01*
X218594151Y-50629480D01*
X218573107Y-50616867D01*
X218553402Y-50602253D01*
X218535223Y-50585777D01*
X218518747Y-50567598D01*
X218504133Y-50547893D01*
X218491520Y-50526849D01*
X218481030Y-50504671D01*
X218472765Y-50481571D01*
X218466804Y-50457773D01*
X218463204Y-50433504D01*
X218462000Y-50409000D01*
X218462000Y-49159000D01*
X218463204Y-49134496D01*
X218466804Y-49110227D01*
X218472765Y-49086429D01*
X218481030Y-49063329D01*
X218491520Y-49041151D01*
X218504133Y-49020107D01*
X218518747Y-49000402D01*
X218535223Y-48982223D01*
X218553402Y-48965747D01*
X218573107Y-48951133D01*
X218594151Y-48938520D01*
X218616329Y-48928030D01*
X218639429Y-48919765D01*
X218663227Y-48913804D01*
X218687496Y-48910204D01*
X218712000Y-48909000D01*
X219637000Y-48909000D01*
X219661504Y-48910204D01*
X219661504Y-48910204D01*
G37*
D11*
X219174500Y-49784000D03*
D10*
G36*
X228986504Y-48910204D02*
G01*
X229010773Y-48913804D01*
X229034571Y-48919765D01*
X229057671Y-48928030D01*
X229079849Y-48938520D01*
X229100893Y-48951133D01*
X229120598Y-48965747D01*
X229138777Y-48982223D01*
X229155253Y-49000402D01*
X229169867Y-49020107D01*
X229182480Y-49041151D01*
X229192970Y-49063329D01*
X229201235Y-49086429D01*
X229207196Y-49110227D01*
X229210796Y-49134496D01*
X229212000Y-49159000D01*
X229212000Y-50409000D01*
X229210796Y-50433504D01*
X229207196Y-50457773D01*
X229201235Y-50481571D01*
X229192970Y-50504671D01*
X229182480Y-50526849D01*
X229169867Y-50547893D01*
X229155253Y-50567598D01*
X229138777Y-50585777D01*
X229120598Y-50602253D01*
X229100893Y-50616867D01*
X229079849Y-50629480D01*
X229057671Y-50639970D01*
X229034571Y-50648235D01*
X229010773Y-50654196D01*
X228986504Y-50657796D01*
X228962000Y-50659000D01*
X228037000Y-50659000D01*
X228012496Y-50657796D01*
X227988227Y-50654196D01*
X227964429Y-50648235D01*
X227941329Y-50639970D01*
X227919151Y-50629480D01*
X227898107Y-50616867D01*
X227878402Y-50602253D01*
X227860223Y-50585777D01*
X227843747Y-50567598D01*
X227829133Y-50547893D01*
X227816520Y-50526849D01*
X227806030Y-50504671D01*
X227797765Y-50481571D01*
X227791804Y-50457773D01*
X227788204Y-50433504D01*
X227787000Y-50409000D01*
X227787000Y-49159000D01*
X227788204Y-49134496D01*
X227791804Y-49110227D01*
X227797765Y-49086429D01*
X227806030Y-49063329D01*
X227816520Y-49041151D01*
X227829133Y-49020107D01*
X227843747Y-49000402D01*
X227860223Y-48982223D01*
X227878402Y-48965747D01*
X227898107Y-48951133D01*
X227919151Y-48938520D01*
X227941329Y-48928030D01*
X227964429Y-48919765D01*
X227988227Y-48913804D01*
X228012496Y-48910204D01*
X228037000Y-48909000D01*
X228962000Y-48909000D01*
X228986504Y-48910204D01*
X228986504Y-48910204D01*
G37*
D11*
X228499500Y-49784000D03*
D10*
G36*
X226011504Y-48910204D02*
G01*
X226035773Y-48913804D01*
X226059571Y-48919765D01*
X226082671Y-48928030D01*
X226104849Y-48938520D01*
X226125893Y-48951133D01*
X226145598Y-48965747D01*
X226163777Y-48982223D01*
X226180253Y-49000402D01*
X226194867Y-49020107D01*
X226207480Y-49041151D01*
X226217970Y-49063329D01*
X226226235Y-49086429D01*
X226232196Y-49110227D01*
X226235796Y-49134496D01*
X226237000Y-49159000D01*
X226237000Y-50409000D01*
X226235796Y-50433504D01*
X226232196Y-50457773D01*
X226226235Y-50481571D01*
X226217970Y-50504671D01*
X226207480Y-50526849D01*
X226194867Y-50547893D01*
X226180253Y-50567598D01*
X226163777Y-50585777D01*
X226145598Y-50602253D01*
X226125893Y-50616867D01*
X226104849Y-50629480D01*
X226082671Y-50639970D01*
X226059571Y-50648235D01*
X226035773Y-50654196D01*
X226011504Y-50657796D01*
X225987000Y-50659000D01*
X225062000Y-50659000D01*
X225037496Y-50657796D01*
X225013227Y-50654196D01*
X224989429Y-50648235D01*
X224966329Y-50639970D01*
X224944151Y-50629480D01*
X224923107Y-50616867D01*
X224903402Y-50602253D01*
X224885223Y-50585777D01*
X224868747Y-50567598D01*
X224854133Y-50547893D01*
X224841520Y-50526849D01*
X224831030Y-50504671D01*
X224822765Y-50481571D01*
X224816804Y-50457773D01*
X224813204Y-50433504D01*
X224812000Y-50409000D01*
X224812000Y-49159000D01*
X224813204Y-49134496D01*
X224816804Y-49110227D01*
X224822765Y-49086429D01*
X224831030Y-49063329D01*
X224841520Y-49041151D01*
X224854133Y-49020107D01*
X224868747Y-49000402D01*
X224885223Y-48982223D01*
X224903402Y-48965747D01*
X224923107Y-48951133D01*
X224944151Y-48938520D01*
X224966329Y-48928030D01*
X224989429Y-48919765D01*
X225013227Y-48913804D01*
X225037496Y-48910204D01*
X225062000Y-48909000D01*
X225987000Y-48909000D01*
X226011504Y-48910204D01*
X226011504Y-48910204D01*
G37*
D11*
X225524500Y-49784000D03*
D10*
G36*
X222636504Y-32400204D02*
G01*
X222660773Y-32403804D01*
X222684571Y-32409765D01*
X222707671Y-32418030D01*
X222729849Y-32428520D01*
X222750893Y-32441133D01*
X222770598Y-32455747D01*
X222788777Y-32472223D01*
X222805253Y-32490402D01*
X222819867Y-32510107D01*
X222832480Y-32531151D01*
X222842970Y-32553329D01*
X222851235Y-32576429D01*
X222857196Y-32600227D01*
X222860796Y-32624496D01*
X222862000Y-32649000D01*
X222862000Y-33899000D01*
X222860796Y-33923504D01*
X222857196Y-33947773D01*
X222851235Y-33971571D01*
X222842970Y-33994671D01*
X222832480Y-34016849D01*
X222819867Y-34037893D01*
X222805253Y-34057598D01*
X222788777Y-34075777D01*
X222770598Y-34092253D01*
X222750893Y-34106867D01*
X222729849Y-34119480D01*
X222707671Y-34129970D01*
X222684571Y-34138235D01*
X222660773Y-34144196D01*
X222636504Y-34147796D01*
X222612000Y-34149000D01*
X221687000Y-34149000D01*
X221662496Y-34147796D01*
X221638227Y-34144196D01*
X221614429Y-34138235D01*
X221591329Y-34129970D01*
X221569151Y-34119480D01*
X221548107Y-34106867D01*
X221528402Y-34092253D01*
X221510223Y-34075777D01*
X221493747Y-34057598D01*
X221479133Y-34037893D01*
X221466520Y-34016849D01*
X221456030Y-33994671D01*
X221447765Y-33971571D01*
X221441804Y-33947773D01*
X221438204Y-33923504D01*
X221437000Y-33899000D01*
X221437000Y-32649000D01*
X221438204Y-32624496D01*
X221441804Y-32600227D01*
X221447765Y-32576429D01*
X221456030Y-32553329D01*
X221466520Y-32531151D01*
X221479133Y-32510107D01*
X221493747Y-32490402D01*
X221510223Y-32472223D01*
X221528402Y-32455747D01*
X221548107Y-32441133D01*
X221569151Y-32428520D01*
X221591329Y-32418030D01*
X221614429Y-32409765D01*
X221638227Y-32403804D01*
X221662496Y-32400204D01*
X221687000Y-32399000D01*
X222612000Y-32399000D01*
X222636504Y-32400204D01*
X222636504Y-32400204D01*
G37*
D11*
X222149500Y-33274000D03*
D10*
G36*
X219661504Y-32400204D02*
G01*
X219685773Y-32403804D01*
X219709571Y-32409765D01*
X219732671Y-32418030D01*
X219754849Y-32428520D01*
X219775893Y-32441133D01*
X219795598Y-32455747D01*
X219813777Y-32472223D01*
X219830253Y-32490402D01*
X219844867Y-32510107D01*
X219857480Y-32531151D01*
X219867970Y-32553329D01*
X219876235Y-32576429D01*
X219882196Y-32600227D01*
X219885796Y-32624496D01*
X219887000Y-32649000D01*
X219887000Y-33899000D01*
X219885796Y-33923504D01*
X219882196Y-33947773D01*
X219876235Y-33971571D01*
X219867970Y-33994671D01*
X219857480Y-34016849D01*
X219844867Y-34037893D01*
X219830253Y-34057598D01*
X219813777Y-34075777D01*
X219795598Y-34092253D01*
X219775893Y-34106867D01*
X219754849Y-34119480D01*
X219732671Y-34129970D01*
X219709571Y-34138235D01*
X219685773Y-34144196D01*
X219661504Y-34147796D01*
X219637000Y-34149000D01*
X218712000Y-34149000D01*
X218687496Y-34147796D01*
X218663227Y-34144196D01*
X218639429Y-34138235D01*
X218616329Y-34129970D01*
X218594151Y-34119480D01*
X218573107Y-34106867D01*
X218553402Y-34092253D01*
X218535223Y-34075777D01*
X218518747Y-34057598D01*
X218504133Y-34037893D01*
X218491520Y-34016849D01*
X218481030Y-33994671D01*
X218472765Y-33971571D01*
X218466804Y-33947773D01*
X218463204Y-33923504D01*
X218462000Y-33899000D01*
X218462000Y-32649000D01*
X218463204Y-32624496D01*
X218466804Y-32600227D01*
X218472765Y-32576429D01*
X218481030Y-32553329D01*
X218491520Y-32531151D01*
X218504133Y-32510107D01*
X218518747Y-32490402D01*
X218535223Y-32472223D01*
X218553402Y-32455747D01*
X218573107Y-32441133D01*
X218594151Y-32428520D01*
X218616329Y-32418030D01*
X218639429Y-32409765D01*
X218663227Y-32403804D01*
X218687496Y-32400204D01*
X218712000Y-32399000D01*
X219637000Y-32399000D01*
X219661504Y-32400204D01*
X219661504Y-32400204D01*
G37*
D11*
X219174500Y-33274000D03*
D12*
X184467000Y-36449000D03*
X184467000Y-46609000D03*
X185737000Y-36449000D03*
X185737000Y-46609000D03*
X187007000Y-36449000D03*
X187007000Y-46609000D03*
X188277000Y-36449000D03*
X188277000Y-46609000D03*
X189547000Y-36449000D03*
X189547000Y-46609000D03*
X190817000Y-36449000D03*
X190817000Y-46609000D03*
X192087000Y-36449000D03*
X192087000Y-46609000D03*
X193357000Y-36449000D03*
X193357000Y-46609000D03*
X194627000Y-36449000D03*
X194627000Y-46609000D03*
X195897000Y-36449000D03*
X195897000Y-46609000D03*
X197167000Y-36449000D03*
X197167000Y-46609000D03*
X198437000Y-36449000D03*
X198437000Y-46609000D03*
X199707000Y-36449000D03*
X199707000Y-46609000D03*
X200977000Y-36449000D03*
X200977000Y-46609000D03*
X202247000Y-36449000D03*
X202247000Y-46609000D03*
X203517000Y-36449000D03*
X203517000Y-46609000D03*
X204787000Y-36449000D03*
X204787000Y-46609000D03*
X206057000Y-36449000D03*
X206057000Y-46609000D03*
X207327000Y-36449000D03*
X207327000Y-46609000D03*
X208597000Y-36449000D03*
X208597000Y-46609000D03*
X236537000Y-46609000D03*
X236537000Y-36449000D03*
X235267000Y-46609000D03*
X235267000Y-36449000D03*
X233997000Y-46609000D03*
X233997000Y-36449000D03*
X232727000Y-46609000D03*
X232727000Y-36449000D03*
X231457000Y-46609000D03*
X231457000Y-36449000D03*
X230187000Y-46609000D03*
X230187000Y-36449000D03*
X228917000Y-46609000D03*
X228917000Y-36449000D03*
X227647000Y-46609000D03*
X227647000Y-36449000D03*
X226377000Y-46609000D03*
X226377000Y-36449000D03*
X225107000Y-46609000D03*
X225107000Y-36449000D03*
X223837000Y-46609000D03*
X223837000Y-36449000D03*
X222567000Y-46609000D03*
X222567000Y-36449000D03*
X221297000Y-46609000D03*
X221297000Y-36449000D03*
X220027000Y-46609000D03*
X220027000Y-36449000D03*
X218757000Y-46609000D03*
X218757000Y-36449000D03*
X217487000Y-46609000D03*
X217487000Y-36449000D03*
X216217000Y-46609000D03*
X216217000Y-36449000D03*
X214947000Y-46609000D03*
X214947000Y-36449000D03*
X213677000Y-46609000D03*
X213677000Y-36449000D03*
X212407000Y-46609000D03*
X212407000Y-36449000D03*
M02*
