G04 #@! TF.GenerationSoftware,KiCad,Pcbnew,(5.1.2-1)-1*
G04 #@! TF.CreationDate,2019-09-30T22:51:03+01:00*
G04 #@! TF.ProjectId,DRAM Board,4452414d-2042-46f6-9172-642e6b696361,rev?*
G04 #@! TF.SameCoordinates,Original*
G04 #@! TF.FileFunction,Legend,Top*
G04 #@! TF.FilePolarity,Positive*
%FSLAX46Y46*%
G04 Gerber Fmt 4.6, Leading zero omitted, Abs format (unit mm)*
G04 Created by KiCad (PCBNEW (5.1.2-1)-1) date 2019-09-30 22:51:03*
%MOMM*%
%LPD*%
G04 APERTURE LIST*
%ADD10C,0.075000*%
%ADD11C,0.150000*%
%ADD12C,0.125000*%
%ADD13C,0.120000*%
G04 APERTURE END LIST*
D10*
X235551714Y-74293428D02*
X235551714Y-74779142D01*
X235523142Y-74836285D01*
X235494571Y-74864857D01*
X235437428Y-74893428D01*
X235351714Y-74893428D01*
X235294571Y-74864857D01*
X235551714Y-74664857D02*
X235494571Y-74693428D01*
X235380285Y-74693428D01*
X235323142Y-74664857D01*
X235294571Y-74636285D01*
X235266000Y-74579142D01*
X235266000Y-74407714D01*
X235294571Y-74350571D01*
X235323142Y-74322000D01*
X235380285Y-74293428D01*
X235494571Y-74293428D01*
X235551714Y-74322000D01*
X235837428Y-74293428D02*
X235837428Y-74693428D01*
X235837428Y-74350571D02*
X235866000Y-74322000D01*
X235923142Y-74293428D01*
X236008857Y-74293428D01*
X236066000Y-74322000D01*
X236094571Y-74379142D01*
X236094571Y-74693428D01*
X236637428Y-74693428D02*
X236637428Y-74093428D01*
X236637428Y-74664857D02*
X236580285Y-74693428D01*
X236466000Y-74693428D01*
X236408857Y-74664857D01*
X236380285Y-74636285D01*
X236351714Y-74579142D01*
X236351714Y-74407714D01*
X236380285Y-74350571D01*
X236408857Y-74322000D01*
X236466000Y-74293428D01*
X236580285Y-74293428D01*
X236637428Y-74322000D01*
X229720857Y-98613928D02*
X229863714Y-99013928D01*
X230006571Y-98613928D01*
X230492285Y-98985357D02*
X230435142Y-99013928D01*
X230320857Y-99013928D01*
X230263714Y-98985357D01*
X230235142Y-98956785D01*
X230206571Y-98899642D01*
X230206571Y-98728214D01*
X230235142Y-98671071D01*
X230263714Y-98642500D01*
X230320857Y-98613928D01*
X230435142Y-98613928D01*
X230492285Y-98642500D01*
X231006571Y-98985357D02*
X230949428Y-99013928D01*
X230835142Y-99013928D01*
X230778000Y-98985357D01*
X230749428Y-98956785D01*
X230720857Y-98899642D01*
X230720857Y-98728214D01*
X230749428Y-98671071D01*
X230778000Y-98642500D01*
X230835142Y-98613928D01*
X230949428Y-98613928D01*
X231006571Y-98642500D01*
X193017857Y-98613928D02*
X193160714Y-99013928D01*
X193303571Y-98613928D01*
X193789285Y-98985357D02*
X193732142Y-99013928D01*
X193617857Y-99013928D01*
X193560714Y-98985357D01*
X193532142Y-98956785D01*
X193503571Y-98899642D01*
X193503571Y-98728214D01*
X193532142Y-98671071D01*
X193560714Y-98642500D01*
X193617857Y-98613928D01*
X193732142Y-98613928D01*
X193789285Y-98642500D01*
X194303571Y-98985357D02*
X194246428Y-99013928D01*
X194132142Y-99013928D01*
X194075000Y-98985357D01*
X194046428Y-98956785D01*
X194017857Y-98899642D01*
X194017857Y-98728214D01*
X194046428Y-98671071D01*
X194075000Y-98642500D01*
X194132142Y-98613928D01*
X194246428Y-98613928D01*
X194303571Y-98642500D01*
X163669714Y-74293428D02*
X163669714Y-74779142D01*
X163641142Y-74836285D01*
X163612571Y-74864857D01*
X163555428Y-74893428D01*
X163469714Y-74893428D01*
X163412571Y-74864857D01*
X163669714Y-74664857D02*
X163612571Y-74693428D01*
X163498285Y-74693428D01*
X163441142Y-74664857D01*
X163412571Y-74636285D01*
X163384000Y-74579142D01*
X163384000Y-74407714D01*
X163412571Y-74350571D01*
X163441142Y-74322000D01*
X163498285Y-74293428D01*
X163612571Y-74293428D01*
X163669714Y-74322000D01*
X163955428Y-74293428D02*
X163955428Y-74693428D01*
X163955428Y-74350571D02*
X163984000Y-74322000D01*
X164041142Y-74293428D01*
X164126857Y-74293428D01*
X164184000Y-74322000D01*
X164212571Y-74379142D01*
X164212571Y-74693428D01*
X164755428Y-74693428D02*
X164755428Y-74093428D01*
X164755428Y-74664857D02*
X164698285Y-74693428D01*
X164584000Y-74693428D01*
X164526857Y-74664857D01*
X164498285Y-74636285D01*
X164469714Y-74579142D01*
X164469714Y-74407714D01*
X164498285Y-74350571D01*
X164526857Y-74322000D01*
X164584000Y-74293428D01*
X164698285Y-74293428D01*
X164755428Y-74322000D01*
X152239714Y-74356928D02*
X152239714Y-74842642D01*
X152211142Y-74899785D01*
X152182571Y-74928357D01*
X152125428Y-74956928D01*
X152039714Y-74956928D01*
X151982571Y-74928357D01*
X152239714Y-74728357D02*
X152182571Y-74756928D01*
X152068285Y-74756928D01*
X152011142Y-74728357D01*
X151982571Y-74699785D01*
X151954000Y-74642642D01*
X151954000Y-74471214D01*
X151982571Y-74414071D01*
X152011142Y-74385500D01*
X152068285Y-74356928D01*
X152182571Y-74356928D01*
X152239714Y-74385500D01*
X152525428Y-74356928D02*
X152525428Y-74756928D01*
X152525428Y-74414071D02*
X152554000Y-74385500D01*
X152611142Y-74356928D01*
X152696857Y-74356928D01*
X152754000Y-74385500D01*
X152782571Y-74442642D01*
X152782571Y-74756928D01*
X153325428Y-74756928D02*
X153325428Y-74156928D01*
X153325428Y-74728357D02*
X153268285Y-74756928D01*
X153154000Y-74756928D01*
X153096857Y-74728357D01*
X153068285Y-74699785D01*
X153039714Y-74642642D01*
X153039714Y-74471214D01*
X153068285Y-74414071D01*
X153096857Y-74385500D01*
X153154000Y-74356928D01*
X153268285Y-74356928D01*
X153325428Y-74385500D01*
X169776857Y-97280428D02*
X169919714Y-97680428D01*
X170062571Y-97280428D01*
X170548285Y-97651857D02*
X170491142Y-97680428D01*
X170376857Y-97680428D01*
X170319714Y-97651857D01*
X170291142Y-97623285D01*
X170262571Y-97566142D01*
X170262571Y-97394714D01*
X170291142Y-97337571D01*
X170319714Y-97309000D01*
X170376857Y-97280428D01*
X170491142Y-97280428D01*
X170548285Y-97309000D01*
X171062571Y-97651857D02*
X171005428Y-97680428D01*
X170891142Y-97680428D01*
X170834000Y-97651857D01*
X170805428Y-97623285D01*
X170776857Y-97566142D01*
X170776857Y-97394714D01*
X170805428Y-97337571D01*
X170834000Y-97309000D01*
X170891142Y-97280428D01*
X171005428Y-97280428D01*
X171062571Y-97309000D01*
X144376857Y-97153428D02*
X144519714Y-97553428D01*
X144662571Y-97153428D01*
X145148285Y-97524857D02*
X145091142Y-97553428D01*
X144976857Y-97553428D01*
X144919714Y-97524857D01*
X144891142Y-97496285D01*
X144862571Y-97439142D01*
X144862571Y-97267714D01*
X144891142Y-97210571D01*
X144919714Y-97182000D01*
X144976857Y-97153428D01*
X145091142Y-97153428D01*
X145148285Y-97182000D01*
X145662571Y-97524857D02*
X145605428Y-97553428D01*
X145491142Y-97553428D01*
X145434000Y-97524857D01*
X145405428Y-97496285D01*
X145376857Y-97439142D01*
X145376857Y-97267714D01*
X145405428Y-97210571D01*
X145434000Y-97182000D01*
X145491142Y-97153428D01*
X145605428Y-97153428D01*
X145662571Y-97182000D01*
D11*
X220162976Y-41981380D02*
X220162976Y-40981380D01*
X220591547Y-41933761D02*
X220734404Y-41981380D01*
X220972500Y-41981380D01*
X221067738Y-41933761D01*
X221115357Y-41886142D01*
X221162976Y-41790904D01*
X221162976Y-41695666D01*
X221115357Y-41600428D01*
X221067738Y-41552809D01*
X220972500Y-41505190D01*
X220782023Y-41457571D01*
X220686785Y-41409952D01*
X220639166Y-41362333D01*
X220591547Y-41267095D01*
X220591547Y-41171857D01*
X220639166Y-41076619D01*
X220686785Y-41029000D01*
X220782023Y-40981380D01*
X221020119Y-40981380D01*
X221162976Y-41029000D01*
X222020119Y-41314714D02*
X222020119Y-41981380D01*
X221782023Y-40933761D02*
X221543928Y-41648047D01*
X222162976Y-41648047D01*
X223067738Y-41981380D02*
X222496309Y-41981380D01*
X222782023Y-41981380D02*
X222782023Y-40981380D01*
X222686785Y-41124238D01*
X222591547Y-41219476D01*
X222496309Y-41267095D01*
X224067738Y-41886142D02*
X224020119Y-41933761D01*
X223877261Y-41981380D01*
X223782023Y-41981380D01*
X223639166Y-41933761D01*
X223543928Y-41838523D01*
X223496309Y-41743285D01*
X223448690Y-41552809D01*
X223448690Y-41409952D01*
X223496309Y-41219476D01*
X223543928Y-41124238D01*
X223639166Y-41029000D01*
X223782023Y-40981380D01*
X223877261Y-40981380D01*
X224020119Y-41029000D01*
X224067738Y-41076619D01*
X225020119Y-41981380D02*
X224448690Y-41981380D01*
X224734404Y-41981380D02*
X224734404Y-40981380D01*
X224639166Y-41124238D01*
X224543928Y-41219476D01*
X224448690Y-41267095D01*
X225877261Y-40981380D02*
X225686785Y-40981380D01*
X225591547Y-41029000D01*
X225543928Y-41076619D01*
X225448690Y-41219476D01*
X225401071Y-41409952D01*
X225401071Y-41790904D01*
X225448690Y-41886142D01*
X225496309Y-41933761D01*
X225591547Y-41981380D01*
X225782023Y-41981380D01*
X225877261Y-41933761D01*
X225924880Y-41886142D01*
X225972500Y-41790904D01*
X225972500Y-41552809D01*
X225924880Y-41457571D01*
X225877261Y-41409952D01*
X225782023Y-41362333D01*
X225591547Y-41362333D01*
X225496309Y-41409952D01*
X225448690Y-41457571D01*
X225401071Y-41552809D01*
X226353452Y-41076619D02*
X226401071Y-41029000D01*
X226496309Y-40981380D01*
X226734404Y-40981380D01*
X226829642Y-41029000D01*
X226877261Y-41076619D01*
X226924880Y-41171857D01*
X226924880Y-41267095D01*
X226877261Y-41409952D01*
X226305833Y-41981380D01*
X226924880Y-41981380D01*
X227829642Y-40981380D02*
X227353452Y-40981380D01*
X227305833Y-41457571D01*
X227353452Y-41409952D01*
X227448690Y-41362333D01*
X227686785Y-41362333D01*
X227782023Y-41409952D01*
X227829642Y-41457571D01*
X227877261Y-41552809D01*
X227877261Y-41790904D01*
X227829642Y-41886142D01*
X227782023Y-41933761D01*
X227686785Y-41981380D01*
X227448690Y-41981380D01*
X227353452Y-41933761D01*
X227305833Y-41886142D01*
X228210595Y-40981380D02*
X228877261Y-40981380D01*
X228448690Y-41981380D01*
X192122991Y-41981380D02*
X192247991Y-40981380D01*
X192557514Y-41933761D02*
X192694419Y-41981380D01*
X192932514Y-41981380D01*
X193033705Y-41933761D01*
X193087276Y-41886142D01*
X193146800Y-41790904D01*
X193158705Y-41695666D01*
X193122991Y-41600428D01*
X193081324Y-41552809D01*
X192992038Y-41505190D01*
X192807514Y-41457571D01*
X192718229Y-41409952D01*
X192676562Y-41362333D01*
X192640848Y-41267095D01*
X192652752Y-41171857D01*
X192712276Y-41076619D01*
X192765848Y-41029000D01*
X192867038Y-40981380D01*
X193105133Y-40981380D01*
X193242038Y-41029000D01*
X194063467Y-41314714D02*
X193980133Y-41981380D01*
X193872991Y-40933761D02*
X193545610Y-41648047D01*
X194164657Y-41648047D01*
X195027752Y-41981380D02*
X194456324Y-41981380D01*
X194742038Y-41981380D02*
X194867038Y-40981380D01*
X194753943Y-41124238D01*
X194646800Y-41219476D01*
X194545610Y-41267095D01*
X196039657Y-41886142D02*
X195986086Y-41933761D01*
X195837276Y-41981380D01*
X195742038Y-41981380D01*
X195605133Y-41933761D01*
X195521800Y-41838523D01*
X195486086Y-41743285D01*
X195462276Y-41552809D01*
X195480133Y-41409952D01*
X195551562Y-41219476D01*
X195611086Y-41124238D01*
X195718229Y-41029000D01*
X195867038Y-40981380D01*
X195962276Y-40981380D01*
X196099181Y-41029000D01*
X196140848Y-41076619D01*
X196980133Y-41981380D02*
X196408705Y-41981380D01*
X196694419Y-41981380D02*
X196819419Y-40981380D01*
X196706324Y-41124238D01*
X196599181Y-41219476D01*
X196497991Y-41267095D01*
X197962276Y-40981380D02*
X197771800Y-40981380D01*
X197670610Y-41029000D01*
X197617038Y-41076619D01*
X197503943Y-41219476D01*
X197432514Y-41409952D01*
X197384895Y-41790904D01*
X197420610Y-41886142D01*
X197462276Y-41933761D01*
X197551562Y-41981380D01*
X197742038Y-41981380D01*
X197843229Y-41933761D01*
X197896800Y-41886142D01*
X197956324Y-41790904D01*
X197986086Y-41552809D01*
X197950372Y-41457571D01*
X197908705Y-41409952D01*
X197819419Y-41362333D01*
X197628943Y-41362333D01*
X197527752Y-41409952D01*
X197474181Y-41457571D01*
X197414657Y-41552809D01*
X198426562Y-41076619D02*
X198480133Y-41029000D01*
X198581324Y-40981380D01*
X198819419Y-40981380D01*
X198908705Y-41029000D01*
X198950372Y-41076619D01*
X198986086Y-41171857D01*
X198974181Y-41267095D01*
X198908705Y-41409952D01*
X198265848Y-41981380D01*
X198884895Y-41981380D01*
X199914657Y-40981380D02*
X199438467Y-40981380D01*
X199331324Y-41457571D01*
X199384895Y-41409952D01*
X199486086Y-41362333D01*
X199724181Y-41362333D01*
X199813467Y-41409952D01*
X199855133Y-41457571D01*
X199890848Y-41552809D01*
X199861086Y-41790904D01*
X199801562Y-41886142D01*
X199747991Y-41933761D01*
X199646800Y-41981380D01*
X199408705Y-41981380D01*
X199319419Y-41933761D01*
X199277752Y-41886142D01*
X200295610Y-40981380D02*
X200962276Y-40981380D01*
X200408705Y-41981380D01*
D12*
X239121904Y-97577537D02*
X238321904Y-97477537D01*
X238702857Y-97525156D02*
X238702857Y-97068013D01*
X239121904Y-97120394D02*
X238321904Y-97020394D01*
X239083809Y-96429918D02*
X239121904Y-96510870D01*
X239121904Y-96663251D01*
X239083809Y-96734680D01*
X239007619Y-96763251D01*
X238702857Y-96725156D01*
X238626666Y-96677537D01*
X238588571Y-96596584D01*
X238588571Y-96444203D01*
X238626666Y-96372775D01*
X238702857Y-96344203D01*
X238779047Y-96353727D01*
X238855238Y-96744203D01*
X239121904Y-95939441D02*
X239083809Y-96010870D01*
X239007619Y-96039441D01*
X238321904Y-95953727D01*
X239121904Y-95520394D02*
X239083809Y-95591822D01*
X239007619Y-95620394D01*
X238321904Y-95534680D01*
X239121904Y-95101346D02*
X239083809Y-95172775D01*
X239045714Y-95206108D01*
X238969523Y-95234680D01*
X238740952Y-95206108D01*
X238664761Y-95158489D01*
X238626666Y-95115632D01*
X238588571Y-95034680D01*
X238588571Y-94920394D01*
X238626666Y-94848965D01*
X238664761Y-94815632D01*
X238740952Y-94787061D01*
X238969523Y-94815632D01*
X239045714Y-94863251D01*
X239083809Y-94906108D01*
X239121904Y-94987061D01*
X239121904Y-95101346D01*
X239045714Y-93415632D02*
X239083809Y-93458489D01*
X239121904Y-93577537D01*
X239121904Y-93653727D01*
X239083809Y-93763251D01*
X239007619Y-93829918D01*
X238931428Y-93858489D01*
X238779047Y-93877537D01*
X238664761Y-93863251D01*
X238512380Y-93806108D01*
X238436190Y-93758489D01*
X238360000Y-93672775D01*
X238321904Y-93553727D01*
X238321904Y-93477537D01*
X238360000Y-93368013D01*
X238398095Y-93334680D01*
X239121904Y-92739441D02*
X238702857Y-92687061D01*
X238626666Y-92715632D01*
X238588571Y-92787061D01*
X238588571Y-92939441D01*
X238626666Y-93020394D01*
X239083809Y-92734680D02*
X239121904Y-92815632D01*
X239121904Y-93006108D01*
X239083809Y-93077537D01*
X239007619Y-93106108D01*
X238931428Y-93096584D01*
X238855238Y-93048965D01*
X238817142Y-92968013D01*
X238817142Y-92777537D01*
X238779047Y-92696584D01*
X238588571Y-92368013D02*
X239121904Y-92244203D01*
X238588571Y-91987061D01*
X239083809Y-91439441D02*
X239121904Y-91520394D01*
X239121904Y-91672775D01*
X239083809Y-91744203D01*
X239007619Y-91772775D01*
X238702857Y-91734680D01*
X238626666Y-91687061D01*
X238588571Y-91606108D01*
X238588571Y-91453727D01*
X238626666Y-91382299D01*
X238702857Y-91353727D01*
X238779047Y-91363251D01*
X238855238Y-91753727D01*
X239121904Y-90453727D02*
X238321904Y-90353727D01*
X238321904Y-90163251D01*
X238360000Y-90053727D01*
X238436190Y-89987061D01*
X238512380Y-89958489D01*
X238664761Y-89939441D01*
X238779047Y-89953727D01*
X238931428Y-90010870D01*
X239007619Y-90058489D01*
X239083809Y-90144203D01*
X239121904Y-90263251D01*
X239121904Y-90453727D01*
X238588571Y-89663251D02*
X239121904Y-89577537D01*
X238740952Y-89377537D01*
X239121904Y-89272775D01*
X238588571Y-89053727D01*
X239083809Y-88506108D02*
X239121904Y-88587061D01*
X239121904Y-88739441D01*
X239083809Y-88810870D01*
X239007619Y-88839441D01*
X238702857Y-88801346D01*
X238626666Y-88753727D01*
X238588571Y-88672775D01*
X238588571Y-88520394D01*
X238626666Y-88448965D01*
X238702857Y-88420394D01*
X238779047Y-88429918D01*
X238855238Y-88820394D01*
X239121904Y-88015632D02*
X239083809Y-88087061D01*
X239007619Y-88115632D01*
X238321904Y-88029918D01*
X239121904Y-87596584D02*
X239083809Y-87668013D01*
X239007619Y-87696584D01*
X238321904Y-87610870D01*
X239083809Y-86982299D02*
X239121904Y-87063251D01*
X239121904Y-87215632D01*
X239083809Y-87287061D01*
X239007619Y-87315632D01*
X238702857Y-87277537D01*
X238626666Y-87229918D01*
X238588571Y-87148965D01*
X238588571Y-86996584D01*
X238626666Y-86925156D01*
X238702857Y-86896584D01*
X238779047Y-86906108D01*
X238855238Y-87296584D01*
X239121904Y-86606108D02*
X238588571Y-86539441D01*
X238740952Y-86558489D02*
X238664761Y-86510870D01*
X238626666Y-86468013D01*
X238588571Y-86387061D01*
X238588571Y-86310870D01*
X239083809Y-86144203D02*
X239121904Y-86072775D01*
X239121904Y-85920394D01*
X239083809Y-85839441D01*
X239007619Y-85791822D01*
X238969523Y-85787061D01*
X238893333Y-85815632D01*
X238855238Y-85887061D01*
X238855238Y-86001346D01*
X238817142Y-86072775D01*
X238740952Y-86101346D01*
X238702857Y-86096584D01*
X238626666Y-86048965D01*
X238588571Y-85968013D01*
X238588571Y-85853727D01*
X238626666Y-85782299D01*
X239045714Y-85453727D02*
X239083809Y-85420394D01*
X239121904Y-85463251D01*
X239083809Y-85496584D01*
X239045714Y-85453727D01*
X239121904Y-85463251D01*
X238817142Y-85425156D02*
X238360000Y-85406108D01*
X238321904Y-85363251D01*
X238360000Y-85329918D01*
X238817142Y-85425156D01*
X238321904Y-85363251D01*
D11*
X201116681Y-63063333D02*
X201075014Y-63015714D01*
X200997633Y-62872857D01*
X200961919Y-62777619D01*
X200932157Y-62634761D01*
X200914300Y-62396666D01*
X200938110Y-62206190D01*
X201015491Y-61968095D01*
X201080967Y-61825238D01*
X201140491Y-61730000D01*
X201253586Y-61587142D01*
X201307157Y-61539523D01*
X202128586Y-62587142D02*
X202075014Y-62634761D01*
X201926205Y-62682380D01*
X201830967Y-62682380D01*
X201694062Y-62634761D01*
X201610729Y-62539523D01*
X201575014Y-62444285D01*
X201551205Y-62253809D01*
X201569062Y-62110952D01*
X201640491Y-61920476D01*
X201700014Y-61825238D01*
X201807157Y-61730000D01*
X201955967Y-61682380D01*
X202051205Y-61682380D01*
X202188110Y-61730000D01*
X202229776Y-61777619D01*
X202402395Y-63063333D02*
X202455967Y-63015714D01*
X202569062Y-62872857D01*
X202628586Y-62777619D01*
X202694062Y-62634761D01*
X202771443Y-62396666D01*
X202795252Y-62206190D01*
X202777395Y-61968095D01*
X202747633Y-61825238D01*
X202711919Y-61730000D01*
X202634538Y-61587142D01*
X202592872Y-61539523D01*
X204039300Y-61777619D02*
X204092872Y-61730000D01*
X204194062Y-61682380D01*
X204432157Y-61682380D01*
X204521443Y-61730000D01*
X204563110Y-61777619D01*
X204598824Y-61872857D01*
X204586919Y-61968095D01*
X204521443Y-62110952D01*
X203878586Y-62682380D01*
X204497633Y-62682380D01*
X205241681Y-61682380D02*
X205336919Y-61682380D01*
X205426205Y-61730000D01*
X205467872Y-61777619D01*
X205503586Y-61872857D01*
X205527395Y-62063333D01*
X205497633Y-62301428D01*
X205426205Y-62491904D01*
X205366681Y-62587142D01*
X205313110Y-62634761D01*
X205211919Y-62682380D01*
X205116681Y-62682380D01*
X205027395Y-62634761D01*
X204985729Y-62587142D01*
X204950014Y-62491904D01*
X204926205Y-62301428D01*
X204955967Y-62063333D01*
X205027395Y-61872857D01*
X205086919Y-61777619D01*
X205140491Y-61730000D01*
X205241681Y-61682380D01*
X206402395Y-62682380D02*
X205830967Y-62682380D01*
X206116681Y-62682380D02*
X206241681Y-61682380D01*
X206128586Y-61825238D01*
X206021443Y-61920476D01*
X205920252Y-61968095D01*
X206878586Y-62682380D02*
X207069062Y-62682380D01*
X207170252Y-62634761D01*
X207223824Y-62587142D01*
X207336919Y-62444285D01*
X207408348Y-62253809D01*
X207455967Y-61872857D01*
X207420252Y-61777619D01*
X207378586Y-61730000D01*
X207289300Y-61682380D01*
X207098824Y-61682380D01*
X206997633Y-61730000D01*
X206944062Y-61777619D01*
X206884538Y-61872857D01*
X206854776Y-62110952D01*
X206890491Y-62206190D01*
X206932157Y-62253809D01*
X207021443Y-62301428D01*
X207211919Y-62301428D01*
X207313110Y-62253809D01*
X207366681Y-62206190D01*
X207426205Y-62110952D01*
X208545252Y-62682380D02*
X208670252Y-61682380D01*
X209116681Y-62682380D02*
X208759538Y-62110952D01*
X209241681Y-61682380D02*
X208598824Y-62253809D01*
X209973824Y-62682380D02*
X210039300Y-62158571D01*
X210003586Y-62063333D01*
X209914300Y-62015714D01*
X209723824Y-62015714D01*
X209622633Y-62063333D01*
X209979776Y-62634761D02*
X209878586Y-62682380D01*
X209640491Y-62682380D01*
X209551205Y-62634761D01*
X209515491Y-62539523D01*
X209527395Y-62444285D01*
X209586919Y-62349047D01*
X209688110Y-62301428D01*
X209926205Y-62301428D01*
X210027395Y-62253809D01*
X210450014Y-62682380D02*
X210533348Y-62015714D01*
X210575014Y-61682380D02*
X210521443Y-61730000D01*
X210563110Y-61777619D01*
X210616681Y-61730000D01*
X210575014Y-61682380D01*
X210563110Y-61777619D01*
X212259538Y-62682380D02*
X211985729Y-62206190D01*
X211688110Y-62682380D02*
X211813110Y-61682380D01*
X212194062Y-61682380D01*
X212283348Y-61730000D01*
X212325014Y-61777619D01*
X212360729Y-61872857D01*
X212342872Y-62015714D01*
X212283348Y-62110952D01*
X212229776Y-62158571D01*
X212128586Y-62206190D01*
X211747633Y-62206190D01*
X212830967Y-62682380D02*
X212741681Y-62634761D01*
X212700014Y-62587142D01*
X212664300Y-62491904D01*
X212700014Y-62206190D01*
X212759538Y-62110952D01*
X212813110Y-62063333D01*
X212914300Y-62015714D01*
X213057157Y-62015714D01*
X213146443Y-62063333D01*
X213188110Y-62110952D01*
X213223824Y-62206190D01*
X213188110Y-62491904D01*
X213128586Y-62587142D01*
X213075014Y-62634761D01*
X212973824Y-62682380D01*
X212830967Y-62682380D01*
X213592872Y-62682380D02*
X213717872Y-61682380D01*
X213670252Y-62063333D02*
X213771443Y-62015714D01*
X213961919Y-62015714D01*
X214051205Y-62063333D01*
X214092872Y-62110952D01*
X214128586Y-62206190D01*
X214092872Y-62491904D01*
X214033348Y-62587142D01*
X213979776Y-62634761D01*
X213878586Y-62682380D01*
X213688110Y-62682380D01*
X213598824Y-62634761D01*
X214497633Y-62682380D02*
X214580967Y-62015714D01*
X214622633Y-61682380D02*
X214569062Y-61730000D01*
X214610729Y-61777619D01*
X214664300Y-61730000D01*
X214622633Y-61682380D01*
X214610729Y-61777619D01*
X215057157Y-62015714D02*
X214973824Y-62682380D01*
X215045252Y-62110952D02*
X215098824Y-62063333D01*
X215200014Y-62015714D01*
X215342872Y-62015714D01*
X215432157Y-62063333D01*
X215467872Y-62158571D01*
X215402395Y-62682380D01*
X215836919Y-62634761D02*
X215926205Y-62682380D01*
X216116681Y-62682380D01*
X216217872Y-62634761D01*
X216277395Y-62539523D01*
X216283348Y-62491904D01*
X216247633Y-62396666D01*
X216158348Y-62349047D01*
X216015491Y-62349047D01*
X215926205Y-62301428D01*
X215890491Y-62206190D01*
X215896443Y-62158571D01*
X215955967Y-62063333D01*
X216057157Y-62015714D01*
X216200014Y-62015714D01*
X216289300Y-62063333D01*
X216830967Y-62682380D02*
X216741681Y-62634761D01*
X216700014Y-62587142D01*
X216664300Y-62491904D01*
X216700014Y-62206190D01*
X216759538Y-62110952D01*
X216813110Y-62063333D01*
X216914300Y-62015714D01*
X217057157Y-62015714D01*
X217146443Y-62063333D01*
X217188110Y-62110952D01*
X217223824Y-62206190D01*
X217188110Y-62491904D01*
X217128586Y-62587142D01*
X217075014Y-62634761D01*
X216973824Y-62682380D01*
X216830967Y-62682380D01*
X217676205Y-62015714D02*
X217592872Y-62682380D01*
X217664300Y-62110952D02*
X217717872Y-62063333D01*
X217819062Y-62015714D01*
X217961919Y-62015714D01*
X218051205Y-62063333D01*
X218086919Y-62158571D01*
X218021443Y-62682380D01*
X193608824Y-60142380D02*
X193733824Y-59142380D01*
X194114776Y-59142380D01*
X194204062Y-59190000D01*
X194245729Y-59237619D01*
X194281443Y-59332857D01*
X194263586Y-59475714D01*
X194204062Y-59570952D01*
X194150491Y-59618571D01*
X194049300Y-59666190D01*
X193668348Y-59666190D01*
X195120729Y-59475714D02*
X195037395Y-60142380D01*
X194692157Y-59475714D02*
X194626681Y-59999523D01*
X194662395Y-60094761D01*
X194751681Y-60142380D01*
X194894538Y-60142380D01*
X194995729Y-60094761D01*
X195049300Y-60047142D01*
X195513586Y-60142380D02*
X195638586Y-59142380D01*
X195590967Y-59523333D02*
X195692157Y-59475714D01*
X195882633Y-59475714D01*
X195971919Y-59523333D01*
X196013586Y-59570952D01*
X196049300Y-59666190D01*
X196013586Y-59951904D01*
X195954062Y-60047142D01*
X195900491Y-60094761D01*
X195799300Y-60142380D01*
X195608824Y-60142380D01*
X195519538Y-60094761D01*
X196561205Y-60142380D02*
X196471919Y-60094761D01*
X196436205Y-59999523D01*
X196543348Y-59142380D01*
X196942157Y-60142380D02*
X197025491Y-59475714D01*
X197067157Y-59142380D02*
X197013586Y-59190000D01*
X197055252Y-59237619D01*
X197108824Y-59190000D01*
X197067157Y-59142380D01*
X197055252Y-59237619D01*
X197376681Y-60094761D02*
X197465967Y-60142380D01*
X197656443Y-60142380D01*
X197757633Y-60094761D01*
X197817157Y-59999523D01*
X197823110Y-59951904D01*
X197787395Y-59856666D01*
X197698110Y-59809047D01*
X197555252Y-59809047D01*
X197465967Y-59761428D01*
X197430252Y-59666190D01*
X197436205Y-59618571D01*
X197495729Y-59523333D01*
X197596919Y-59475714D01*
X197739776Y-59475714D01*
X197829062Y-59523333D01*
X198227872Y-60142380D02*
X198352872Y-59142380D01*
X198656443Y-60142380D02*
X198721919Y-59618571D01*
X198686205Y-59523333D01*
X198596919Y-59475714D01*
X198454062Y-59475714D01*
X198352872Y-59523333D01*
X198299300Y-59570952D01*
X199519538Y-60094761D02*
X199418348Y-60142380D01*
X199227872Y-60142380D01*
X199138586Y-60094761D01*
X199102872Y-59999523D01*
X199150491Y-59618571D01*
X199210014Y-59523333D01*
X199311205Y-59475714D01*
X199501681Y-59475714D01*
X199590967Y-59523333D01*
X199626681Y-59618571D01*
X199614776Y-59713809D01*
X199126681Y-59809047D01*
X200418348Y-60142380D02*
X200543348Y-59142380D01*
X200424300Y-60094761D02*
X200323110Y-60142380D01*
X200132633Y-60142380D01*
X200043348Y-60094761D01*
X200001681Y-60047142D01*
X199965967Y-59951904D01*
X200001681Y-59666190D01*
X200061205Y-59570952D01*
X200114776Y-59523333D01*
X200215967Y-59475714D01*
X200406443Y-59475714D01*
X200495729Y-59523333D01*
X202168348Y-59475714D02*
X202085014Y-60142380D01*
X201739776Y-59475714D02*
X201674300Y-59999523D01*
X201710014Y-60094761D01*
X201799300Y-60142380D01*
X201942157Y-60142380D01*
X202043348Y-60094761D01*
X202096919Y-60047142D01*
X202644538Y-59475714D02*
X202561205Y-60142380D01*
X202632633Y-59570952D02*
X202686205Y-59523333D01*
X202787395Y-59475714D01*
X202930252Y-59475714D01*
X203019538Y-59523333D01*
X203055252Y-59618571D01*
X202989776Y-60142380D01*
X203894538Y-60142380D02*
X204019538Y-59142380D01*
X203900491Y-60094761D02*
X203799300Y-60142380D01*
X203608824Y-60142380D01*
X203519538Y-60094761D01*
X203477872Y-60047142D01*
X203442157Y-59951904D01*
X203477872Y-59666190D01*
X203537395Y-59570952D01*
X203590967Y-59523333D01*
X203692157Y-59475714D01*
X203882633Y-59475714D01*
X203971919Y-59523333D01*
X204757633Y-60094761D02*
X204656443Y-60142380D01*
X204465967Y-60142380D01*
X204376681Y-60094761D01*
X204340967Y-59999523D01*
X204388586Y-59618571D01*
X204448110Y-59523333D01*
X204549300Y-59475714D01*
X204739776Y-59475714D01*
X204829062Y-59523333D01*
X204864776Y-59618571D01*
X204852872Y-59713809D01*
X204364776Y-59809047D01*
X205227872Y-60142380D02*
X205311205Y-59475714D01*
X205287395Y-59666190D02*
X205346919Y-59570952D01*
X205400491Y-59523333D01*
X205501681Y-59475714D01*
X205596919Y-59475714D01*
X206549300Y-59475714D02*
X206930252Y-59475714D01*
X206733824Y-59142380D02*
X206626681Y-59999523D01*
X206662395Y-60094761D01*
X206751681Y-60142380D01*
X206846919Y-60142380D01*
X207180252Y-60142380D02*
X207305252Y-59142380D01*
X207608824Y-60142380D02*
X207674300Y-59618571D01*
X207638586Y-59523333D01*
X207549300Y-59475714D01*
X207406443Y-59475714D01*
X207305252Y-59523333D01*
X207251681Y-59570952D01*
X208471919Y-60094761D02*
X208370729Y-60142380D01*
X208180252Y-60142380D01*
X208090967Y-60094761D01*
X208055252Y-59999523D01*
X208102872Y-59618571D01*
X208162395Y-59523333D01*
X208263586Y-59475714D01*
X208454062Y-59475714D01*
X208543348Y-59523333D01*
X208579062Y-59618571D01*
X208567157Y-59713809D01*
X208079062Y-59809047D01*
X210346919Y-59190000D02*
X210257633Y-59142380D01*
X210114776Y-59142380D01*
X209965967Y-59190000D01*
X209858824Y-59285238D01*
X209799300Y-59380476D01*
X209727872Y-59570952D01*
X209710014Y-59713809D01*
X209733824Y-59904285D01*
X209769538Y-59999523D01*
X209852872Y-60094761D01*
X209989776Y-60142380D01*
X210085014Y-60142380D01*
X210233824Y-60094761D01*
X210287395Y-60047142D01*
X210329062Y-59713809D01*
X210138586Y-59713809D01*
X210704062Y-60142380D02*
X210829062Y-59142380D01*
X211275491Y-60142380D01*
X211400491Y-59142380D01*
X211876681Y-59142380D02*
X211775491Y-59951904D01*
X211811205Y-60047142D01*
X211852872Y-60094761D01*
X211942157Y-60142380D01*
X212132633Y-60142380D01*
X212233824Y-60094761D01*
X212287395Y-60047142D01*
X212346919Y-59951904D01*
X212448110Y-59142380D01*
X213561205Y-60142380D02*
X213686205Y-59142380D01*
X214067157Y-59142380D01*
X214156443Y-59190000D01*
X214198110Y-59237619D01*
X214233824Y-59332857D01*
X214215967Y-59475714D01*
X214156443Y-59570952D01*
X214102872Y-59618571D01*
X214001681Y-59666190D01*
X213620729Y-59666190D01*
X215073110Y-59475714D02*
X214989776Y-60142380D01*
X214644538Y-59475714D02*
X214579062Y-59999523D01*
X214614776Y-60094761D01*
X214704062Y-60142380D01*
X214846919Y-60142380D01*
X214948110Y-60094761D01*
X215001681Y-60047142D01*
X215465967Y-60142380D02*
X215590967Y-59142380D01*
X215543348Y-59523333D02*
X215644538Y-59475714D01*
X215835014Y-59475714D01*
X215924300Y-59523333D01*
X215965967Y-59570952D01*
X216001681Y-59666190D01*
X215965967Y-59951904D01*
X215906443Y-60047142D01*
X215852872Y-60094761D01*
X215751681Y-60142380D01*
X215561205Y-60142380D01*
X215471919Y-60094761D01*
X216513586Y-60142380D02*
X216424300Y-60094761D01*
X216388586Y-59999523D01*
X216495729Y-59142380D01*
X216894538Y-60142380D02*
X216977872Y-59475714D01*
X217019538Y-59142380D02*
X216965967Y-59190000D01*
X217007633Y-59237619D01*
X217061205Y-59190000D01*
X217019538Y-59142380D01*
X217007633Y-59237619D01*
X217805252Y-60094761D02*
X217704062Y-60142380D01*
X217513586Y-60142380D01*
X217424300Y-60094761D01*
X217382633Y-60047142D01*
X217346919Y-59951904D01*
X217382633Y-59666190D01*
X217442157Y-59570952D01*
X217495729Y-59523333D01*
X217596919Y-59475714D01*
X217787395Y-59475714D01*
X217876681Y-59523333D01*
X219465967Y-60142380D02*
X218989776Y-60142380D01*
X219114776Y-59142380D01*
X219799300Y-60142380D02*
X219882633Y-59475714D01*
X219924300Y-59142380D02*
X219870729Y-59190000D01*
X219912395Y-59237619D01*
X219965967Y-59190000D01*
X219924300Y-59142380D01*
X219912395Y-59237619D01*
X220710014Y-60094761D02*
X220608824Y-60142380D01*
X220418348Y-60142380D01*
X220329062Y-60094761D01*
X220287395Y-60047142D01*
X220251681Y-59951904D01*
X220287395Y-59666190D01*
X220346919Y-59570952D01*
X220400491Y-59523333D01*
X220501681Y-59475714D01*
X220692157Y-59475714D01*
X220781443Y-59523333D01*
X221519538Y-60094761D02*
X221418348Y-60142380D01*
X221227872Y-60142380D01*
X221138586Y-60094761D01*
X221102872Y-59999523D01*
X221150491Y-59618571D01*
X221210014Y-59523333D01*
X221311205Y-59475714D01*
X221501681Y-59475714D01*
X221590967Y-59523333D01*
X221626681Y-59618571D01*
X221614776Y-59713809D01*
X221126681Y-59809047D01*
X222073110Y-59475714D02*
X221989776Y-60142380D01*
X222061205Y-59570952D02*
X222114776Y-59523333D01*
X222215967Y-59475714D01*
X222358824Y-59475714D01*
X222448110Y-59523333D01*
X222483824Y-59618571D01*
X222418348Y-60142380D01*
X222852872Y-60094761D02*
X222942157Y-60142380D01*
X223132633Y-60142380D01*
X223233824Y-60094761D01*
X223293348Y-59999523D01*
X223299300Y-59951904D01*
X223263586Y-59856666D01*
X223174300Y-59809047D01*
X223031443Y-59809047D01*
X222942157Y-59761428D01*
X222906443Y-59666190D01*
X222912395Y-59618571D01*
X222971919Y-59523333D01*
X223073110Y-59475714D01*
X223215967Y-59475714D01*
X223305252Y-59523333D01*
X224090967Y-60094761D02*
X223989776Y-60142380D01*
X223799300Y-60142380D01*
X223710014Y-60094761D01*
X223674300Y-59999523D01*
X223721919Y-59618571D01*
X223781443Y-59523333D01*
X223882633Y-59475714D01*
X224073110Y-59475714D01*
X224162395Y-59523333D01*
X224198110Y-59618571D01*
X224186205Y-59713809D01*
X223698110Y-59809047D01*
X225311205Y-59475714D02*
X225465967Y-60142380D01*
X225787395Y-59475714D01*
X226150491Y-59237619D02*
X226204062Y-59190000D01*
X226305252Y-59142380D01*
X226543348Y-59142380D01*
X226632633Y-59190000D01*
X226674300Y-59237619D01*
X226710014Y-59332857D01*
X226698110Y-59428095D01*
X226632633Y-59570952D01*
X225989776Y-60142380D01*
X226608824Y-60142380D01*
X194525491Y-57316666D02*
X195001681Y-57316666D01*
X194394538Y-57602380D02*
X194852872Y-56602380D01*
X195061205Y-57602380D01*
X195394538Y-57602380D02*
X195477872Y-56935714D01*
X195465967Y-57030952D02*
X195519538Y-56983333D01*
X195620729Y-56935714D01*
X195763586Y-56935714D01*
X195852872Y-56983333D01*
X195888586Y-57078571D01*
X195823110Y-57602380D01*
X195888586Y-57078571D02*
X195948110Y-56983333D01*
X196049300Y-56935714D01*
X196192157Y-56935714D01*
X196281443Y-56983333D01*
X196317157Y-57078571D01*
X196251681Y-57602380D01*
X196727872Y-57602380D02*
X196811205Y-56935714D01*
X196852872Y-56602380D02*
X196799300Y-56650000D01*
X196840967Y-56697619D01*
X196894538Y-56650000D01*
X196852872Y-56602380D01*
X196840967Y-56697619D01*
X197715967Y-56935714D02*
X197614776Y-57745238D01*
X197555252Y-57840476D01*
X197501681Y-57888095D01*
X197400491Y-57935714D01*
X197257633Y-57935714D01*
X197168348Y-57888095D01*
X197638586Y-57554761D02*
X197537395Y-57602380D01*
X197346919Y-57602380D01*
X197257633Y-57554761D01*
X197215967Y-57507142D01*
X197180252Y-57411904D01*
X197215967Y-57126190D01*
X197275491Y-57030952D01*
X197329062Y-56983333D01*
X197430252Y-56935714D01*
X197620729Y-56935714D01*
X197710014Y-56983333D01*
X198537395Y-57602380D02*
X198602872Y-57078571D01*
X198567157Y-56983333D01*
X198477872Y-56935714D01*
X198287395Y-56935714D01*
X198186205Y-56983333D01*
X198543348Y-57554761D02*
X198442157Y-57602380D01*
X198204062Y-57602380D01*
X198114776Y-57554761D01*
X198079062Y-57459523D01*
X198090967Y-57364285D01*
X198150491Y-57269047D01*
X198251681Y-57221428D01*
X198489776Y-57221428D01*
X198590967Y-57173809D01*
X200376681Y-56602380D02*
X199900491Y-56602380D01*
X199793348Y-57078571D01*
X199846919Y-57030952D01*
X199948110Y-56983333D01*
X200186205Y-56983333D01*
X200275491Y-57030952D01*
X200317157Y-57078571D01*
X200352872Y-57173809D01*
X200323110Y-57411904D01*
X200263586Y-57507142D01*
X200210014Y-57554761D01*
X200108824Y-57602380D01*
X199870729Y-57602380D01*
X199781443Y-57554761D01*
X199739776Y-57507142D01*
X201043348Y-56602380D02*
X201138586Y-56602380D01*
X201227872Y-56650000D01*
X201269538Y-56697619D01*
X201305252Y-56792857D01*
X201329062Y-56983333D01*
X201299300Y-57221428D01*
X201227872Y-57411904D01*
X201168348Y-57507142D01*
X201114776Y-57554761D01*
X201013586Y-57602380D01*
X200918348Y-57602380D01*
X200829062Y-57554761D01*
X200787395Y-57507142D01*
X200751681Y-57411904D01*
X200727872Y-57221428D01*
X200757633Y-56983333D01*
X200829062Y-56792857D01*
X200888586Y-56697619D01*
X200942157Y-56650000D01*
X201043348Y-56602380D01*
X201995729Y-56602380D02*
X202090967Y-56602380D01*
X202180252Y-56650000D01*
X202221919Y-56697619D01*
X202257633Y-56792857D01*
X202281443Y-56983333D01*
X202251681Y-57221428D01*
X202180252Y-57411904D01*
X202120729Y-57507142D01*
X202067157Y-57554761D01*
X201965967Y-57602380D01*
X201870729Y-57602380D01*
X201781443Y-57554761D01*
X201739776Y-57507142D01*
X201704062Y-57411904D01*
X201680252Y-57221428D01*
X201710014Y-56983333D01*
X201781443Y-56792857D01*
X201840967Y-56697619D01*
X201894538Y-56650000D01*
X201995729Y-56602380D01*
X203977872Y-57507142D02*
X203924300Y-57554761D01*
X203775491Y-57602380D01*
X203680252Y-57602380D01*
X203543348Y-57554761D01*
X203460014Y-57459523D01*
X203424300Y-57364285D01*
X203400491Y-57173809D01*
X203418348Y-57030952D01*
X203489776Y-56840476D01*
X203549300Y-56745238D01*
X203656443Y-56650000D01*
X203805252Y-56602380D01*
X203900491Y-56602380D01*
X204037395Y-56650000D01*
X204079062Y-56697619D01*
X204394538Y-57602380D02*
X204519538Y-56602380D01*
X204460014Y-57078571D02*
X205031443Y-57078571D01*
X204965967Y-57602380D02*
X205090967Y-56602380D01*
X205442157Y-57602380D02*
X205567157Y-56602380D01*
X205918348Y-57602380D02*
X206043348Y-56602380D01*
X206424300Y-56602380D01*
X206513586Y-56650000D01*
X206555252Y-56697619D01*
X206590967Y-56792857D01*
X206573110Y-56935714D01*
X206513586Y-57030952D01*
X206460014Y-57078571D01*
X206358824Y-57126190D01*
X205977872Y-57126190D01*
X208251681Y-57602380D02*
X207977872Y-57126190D01*
X207680252Y-57602380D02*
X207805252Y-56602380D01*
X208186205Y-56602380D01*
X208275491Y-56650000D01*
X208317157Y-56697619D01*
X208352872Y-56792857D01*
X208335014Y-56935714D01*
X208275491Y-57030952D01*
X208221919Y-57078571D01*
X208120729Y-57126190D01*
X207739776Y-57126190D01*
X208668348Y-57316666D02*
X209144538Y-57316666D01*
X208537395Y-57602380D02*
X208995729Y-56602380D01*
X209204062Y-57602380D01*
X209537395Y-57602380D02*
X209662395Y-56602380D01*
X209906443Y-57316666D01*
X210329062Y-56602380D01*
X210204062Y-57602380D01*
X212013586Y-57602380D02*
X211739776Y-57126190D01*
X211442157Y-57602380D02*
X211567157Y-56602380D01*
X211948110Y-56602380D01*
X212037395Y-56650000D01*
X212079062Y-56697619D01*
X212114776Y-56792857D01*
X212096919Y-56935714D01*
X212037395Y-57030952D01*
X211983824Y-57078571D01*
X211882633Y-57126190D01*
X211501681Y-57126190D01*
X212829062Y-57554761D02*
X212727872Y-57602380D01*
X212537395Y-57602380D01*
X212448110Y-57554761D01*
X212412395Y-57459523D01*
X212460014Y-57078571D01*
X212519538Y-56983333D01*
X212620729Y-56935714D01*
X212811205Y-56935714D01*
X212900491Y-56983333D01*
X212936205Y-57078571D01*
X212924300Y-57173809D01*
X212436205Y-57269047D01*
X213382633Y-56935714D02*
X213257633Y-57935714D01*
X213376681Y-56983333D02*
X213477872Y-56935714D01*
X213668348Y-56935714D01*
X213757633Y-56983333D01*
X213799300Y-57030952D01*
X213835014Y-57126190D01*
X213799300Y-57411904D01*
X213739776Y-57507142D01*
X213686205Y-57554761D01*
X213585014Y-57602380D01*
X213394538Y-57602380D01*
X213305252Y-57554761D01*
X214346919Y-57602380D02*
X214257633Y-57554761D01*
X214221919Y-57459523D01*
X214329062Y-56602380D01*
X215156443Y-57602380D02*
X215221919Y-57078571D01*
X215186205Y-56983333D01*
X215096919Y-56935714D01*
X214906443Y-56935714D01*
X214805252Y-56983333D01*
X215162395Y-57554761D02*
X215061205Y-57602380D01*
X214823110Y-57602380D01*
X214733824Y-57554761D01*
X214698110Y-57459523D01*
X214710014Y-57364285D01*
X214769538Y-57269047D01*
X214870729Y-57221428D01*
X215108824Y-57221428D01*
X215210014Y-57173809D01*
X216067157Y-57554761D02*
X215965967Y-57602380D01*
X215775491Y-57602380D01*
X215686205Y-57554761D01*
X215644538Y-57507142D01*
X215608824Y-57411904D01*
X215644538Y-57126190D01*
X215704062Y-57030952D01*
X215757633Y-56983333D01*
X215858824Y-56935714D01*
X216049300Y-56935714D01*
X216138586Y-56983333D01*
X216876681Y-57554761D02*
X216775491Y-57602380D01*
X216585014Y-57602380D01*
X216495729Y-57554761D01*
X216460014Y-57459523D01*
X216507633Y-57078571D01*
X216567157Y-56983333D01*
X216668348Y-56935714D01*
X216858824Y-56935714D01*
X216948110Y-56983333D01*
X216983824Y-57078571D01*
X216971919Y-57173809D01*
X216483824Y-57269047D01*
X217346919Y-57602380D02*
X217430252Y-56935714D01*
X217418348Y-57030952D02*
X217471919Y-56983333D01*
X217573110Y-56935714D01*
X217715967Y-56935714D01*
X217805252Y-56983333D01*
X217840967Y-57078571D01*
X217775491Y-57602380D01*
X217840967Y-57078571D02*
X217900491Y-56983333D01*
X218001681Y-56935714D01*
X218144538Y-56935714D01*
X218233824Y-56983333D01*
X218269538Y-57078571D01*
X218204062Y-57602380D01*
X219067157Y-57554761D02*
X218965967Y-57602380D01*
X218775491Y-57602380D01*
X218686205Y-57554761D01*
X218650491Y-57459523D01*
X218698110Y-57078571D01*
X218757633Y-56983333D01*
X218858824Y-56935714D01*
X219049300Y-56935714D01*
X219138586Y-56983333D01*
X219174300Y-57078571D01*
X219162395Y-57173809D01*
X218674300Y-57269047D01*
X219620729Y-56935714D02*
X219537395Y-57602380D01*
X219608824Y-57030952D02*
X219662395Y-56983333D01*
X219763586Y-56935714D01*
X219906443Y-56935714D01*
X219995729Y-56983333D01*
X220031443Y-57078571D01*
X219965967Y-57602380D01*
X220382633Y-56935714D02*
X220763586Y-56935714D01*
X220567157Y-56602380D02*
X220460014Y-57459523D01*
X220495729Y-57554761D01*
X220585014Y-57602380D01*
X220680252Y-57602380D01*
X222174300Y-57078571D02*
X222311205Y-57126190D01*
X222352872Y-57173809D01*
X222388586Y-57269047D01*
X222370729Y-57411904D01*
X222311205Y-57507142D01*
X222257633Y-57554761D01*
X222156443Y-57602380D01*
X221775491Y-57602380D01*
X221900491Y-56602380D01*
X222233824Y-56602380D01*
X222323110Y-56650000D01*
X222364776Y-56697619D01*
X222400491Y-56792857D01*
X222388586Y-56888095D01*
X222329062Y-56983333D01*
X222275491Y-57030952D01*
X222174300Y-57078571D01*
X221840967Y-57078571D01*
X222918348Y-57602380D02*
X222829062Y-57554761D01*
X222787395Y-57507142D01*
X222751681Y-57411904D01*
X222787395Y-57126190D01*
X222846919Y-57030952D01*
X222900491Y-56983333D01*
X223001681Y-56935714D01*
X223144538Y-56935714D01*
X223233824Y-56983333D01*
X223275491Y-57030952D01*
X223311205Y-57126190D01*
X223275491Y-57411904D01*
X223215967Y-57507142D01*
X223162395Y-57554761D01*
X223061205Y-57602380D01*
X222918348Y-57602380D01*
X224108824Y-57602380D02*
X224174300Y-57078571D01*
X224138586Y-56983333D01*
X224049300Y-56935714D01*
X223858824Y-56935714D01*
X223757633Y-56983333D01*
X224114776Y-57554761D02*
X224013586Y-57602380D01*
X223775491Y-57602380D01*
X223686205Y-57554761D01*
X223650491Y-57459523D01*
X223662395Y-57364285D01*
X223721919Y-57269047D01*
X223823110Y-57221428D01*
X224061205Y-57221428D01*
X224162395Y-57173809D01*
X224585014Y-57602380D02*
X224668348Y-56935714D01*
X224644538Y-57126190D02*
X224704062Y-57030952D01*
X224757633Y-56983333D01*
X224858824Y-56935714D01*
X224954062Y-56935714D01*
X225632633Y-57602380D02*
X225757633Y-56602380D01*
X225638586Y-57554761D02*
X225537395Y-57602380D01*
X225346919Y-57602380D01*
X225257633Y-57554761D01*
X225215967Y-57507142D01*
X225180252Y-57411904D01*
X225215967Y-57126190D01*
X225275491Y-57030952D01*
X225329062Y-56983333D01*
X225430252Y-56935714D01*
X225620729Y-56935714D01*
X225710014Y-56983333D01*
D13*
X192119936Y-48874000D02*
X193324064Y-48874000D01*
X192119936Y-50694000D02*
X193324064Y-50694000D01*
X199674064Y-48874000D02*
X198469936Y-48874000D01*
X199674064Y-50694000D02*
X198469936Y-50694000D01*
X192119936Y-32364000D02*
X193324064Y-32364000D01*
X192119936Y-34184000D02*
X193324064Y-34184000D01*
X220059936Y-50694000D02*
X221264064Y-50694000D01*
X220059936Y-48874000D02*
X221264064Y-48874000D01*
X227614064Y-50694000D02*
X226409936Y-50694000D01*
X227614064Y-48874000D02*
X226409936Y-48874000D01*
X220059936Y-34184000D02*
X221264064Y-34184000D01*
X220059936Y-32364000D02*
X221264064Y-32364000D01*
X184517000Y-48209000D02*
X183717000Y-47409000D01*
X183717000Y-47409000D02*
X183717000Y-34849000D01*
X183717000Y-34849000D02*
X209347000Y-34849000D01*
X209347000Y-34849000D02*
X209347000Y-48209000D01*
X209347000Y-48209000D02*
X184517000Y-48209000D01*
X237287000Y-48209000D02*
X212457000Y-48209000D01*
X237287000Y-34849000D02*
X237287000Y-48209000D01*
X211657000Y-34849000D02*
X237287000Y-34849000D01*
X211657000Y-47409000D02*
X211657000Y-34849000D01*
X212457000Y-48209000D02*
X211657000Y-47409000D01*
D10*
X192507714Y-49684000D02*
X192479142Y-49655428D01*
X192450571Y-49569714D01*
X192450571Y-49512571D01*
X192479142Y-49426857D01*
X192536285Y-49369714D01*
X192593428Y-49341142D01*
X192707714Y-49312571D01*
X192793428Y-49312571D01*
X192907714Y-49341142D01*
X192964857Y-49369714D01*
X193022000Y-49426857D01*
X193050571Y-49512571D01*
X193050571Y-49569714D01*
X193022000Y-49655428D01*
X192993428Y-49684000D01*
X192450571Y-50255428D02*
X192450571Y-49912571D01*
X192450571Y-50084000D02*
X193050571Y-50084000D01*
X192964857Y-50026857D01*
X192907714Y-49969714D01*
X192879142Y-49912571D01*
X199286285Y-49884000D02*
X199314857Y-49912571D01*
X199343428Y-49998285D01*
X199343428Y-50055428D01*
X199314857Y-50141142D01*
X199257714Y-50198285D01*
X199200571Y-50226857D01*
X199086285Y-50255428D01*
X199000571Y-50255428D01*
X198886285Y-50226857D01*
X198829142Y-50198285D01*
X198772000Y-50141142D01*
X198743428Y-50055428D01*
X198743428Y-49998285D01*
X198772000Y-49912571D01*
X198800571Y-49884000D01*
X198800571Y-49655428D02*
X198772000Y-49626857D01*
X198743428Y-49569714D01*
X198743428Y-49426857D01*
X198772000Y-49369714D01*
X198800571Y-49341142D01*
X198857714Y-49312571D01*
X198914857Y-49312571D01*
X199000571Y-49341142D01*
X199343428Y-49684000D01*
X199343428Y-49312571D01*
X192507714Y-33174000D02*
X192479142Y-33145428D01*
X192450571Y-33059714D01*
X192450571Y-33002571D01*
X192479142Y-32916857D01*
X192536285Y-32859714D01*
X192593428Y-32831142D01*
X192707714Y-32802571D01*
X192793428Y-32802571D01*
X192907714Y-32831142D01*
X192964857Y-32859714D01*
X193022000Y-32916857D01*
X193050571Y-33002571D01*
X193050571Y-33059714D01*
X193022000Y-33145428D01*
X192993428Y-33174000D01*
X193050571Y-33374000D02*
X193050571Y-33745428D01*
X192822000Y-33545428D01*
X192822000Y-33631142D01*
X192793428Y-33688285D01*
X192764857Y-33716857D01*
X192707714Y-33745428D01*
X192564857Y-33745428D01*
X192507714Y-33716857D01*
X192479142Y-33688285D01*
X192450571Y-33631142D01*
X192450571Y-33459714D01*
X192479142Y-33402571D01*
X192507714Y-33374000D01*
X220447714Y-49684000D02*
X220419142Y-49655428D01*
X220390571Y-49569714D01*
X220390571Y-49512571D01*
X220419142Y-49426857D01*
X220476285Y-49369714D01*
X220533428Y-49341142D01*
X220647714Y-49312571D01*
X220733428Y-49312571D01*
X220847714Y-49341142D01*
X220904857Y-49369714D01*
X220962000Y-49426857D01*
X220990571Y-49512571D01*
X220990571Y-49569714D01*
X220962000Y-49655428D01*
X220933428Y-49684000D01*
X220790571Y-50198285D02*
X220390571Y-50198285D01*
X221019142Y-50055428D02*
X220590571Y-49912571D01*
X220590571Y-50284000D01*
X236113657Y-79773428D02*
X236113657Y-79173428D01*
X236113657Y-79744857D02*
X236056514Y-79773428D01*
X235942228Y-79773428D01*
X235885085Y-79744857D01*
X235856514Y-79716285D01*
X235827942Y-79659142D01*
X235827942Y-79487714D01*
X235856514Y-79430571D01*
X235885085Y-79402000D01*
X235942228Y-79373428D01*
X236056514Y-79373428D01*
X236113657Y-79402000D01*
X236513657Y-79173428D02*
X236570800Y-79173428D01*
X236627942Y-79202000D01*
X236656514Y-79230571D01*
X236685085Y-79287714D01*
X236713657Y-79402000D01*
X236713657Y-79544857D01*
X236685085Y-79659142D01*
X236656514Y-79716285D01*
X236627942Y-79744857D01*
X236570800Y-79773428D01*
X236513657Y-79773428D01*
X236456514Y-79744857D01*
X236427942Y-79716285D01*
X236399371Y-79659142D01*
X236370800Y-79544857D01*
X236370800Y-79402000D01*
X236399371Y-79287714D01*
X236427942Y-79230571D01*
X236456514Y-79202000D01*
X236513657Y-79173428D01*
X228493657Y-77233428D02*
X228493657Y-76633428D01*
X228493657Y-77204857D02*
X228436514Y-77233428D01*
X228322228Y-77233428D01*
X228265085Y-77204857D01*
X228236514Y-77176285D01*
X228207942Y-77119142D01*
X228207942Y-76947714D01*
X228236514Y-76890571D01*
X228265085Y-76862000D01*
X228322228Y-76833428D01*
X228436514Y-76833428D01*
X228493657Y-76862000D01*
X229093657Y-77233428D02*
X228750800Y-77233428D01*
X228922228Y-77233428D02*
X228922228Y-76633428D01*
X228865085Y-76719142D01*
X228807942Y-76776285D01*
X228750800Y-76804857D01*
X236113657Y-77233428D02*
X236113657Y-76633428D01*
X236113657Y-77204857D02*
X236056514Y-77233428D01*
X235942228Y-77233428D01*
X235885085Y-77204857D01*
X235856514Y-77176285D01*
X235827942Y-77119142D01*
X235827942Y-76947714D01*
X235856514Y-76890571D01*
X235885085Y-76862000D01*
X235942228Y-76833428D01*
X236056514Y-76833428D01*
X236113657Y-76862000D01*
X236370800Y-76690571D02*
X236399371Y-76662000D01*
X236456514Y-76633428D01*
X236599371Y-76633428D01*
X236656514Y-76662000D01*
X236685085Y-76690571D01*
X236713657Y-76747714D01*
X236713657Y-76804857D01*
X236685085Y-76890571D01*
X236342228Y-77233428D01*
X236713657Y-77233428D01*
X228493657Y-74693428D02*
X228493657Y-74093428D01*
X228493657Y-74664857D02*
X228436514Y-74693428D01*
X228322228Y-74693428D01*
X228265085Y-74664857D01*
X228236514Y-74636285D01*
X228207942Y-74579142D01*
X228207942Y-74407714D01*
X228236514Y-74350571D01*
X228265085Y-74322000D01*
X228322228Y-74293428D01*
X228436514Y-74293428D01*
X228493657Y-74322000D01*
X228722228Y-74093428D02*
X229093657Y-74093428D01*
X228893657Y-74322000D01*
X228979371Y-74322000D01*
X229036514Y-74350571D01*
X229065085Y-74379142D01*
X229093657Y-74436285D01*
X229093657Y-74579142D01*
X229065085Y-74636285D01*
X229036514Y-74664857D01*
X228979371Y-74693428D01*
X228807942Y-74693428D01*
X228750800Y-74664857D01*
X228722228Y-74636285D01*
X202840057Y-79722628D02*
X202840057Y-79122628D01*
X202840057Y-79694057D02*
X202782914Y-79722628D01*
X202668628Y-79722628D01*
X202611485Y-79694057D01*
X202582914Y-79665485D01*
X202554342Y-79608342D01*
X202554342Y-79436914D01*
X202582914Y-79379771D01*
X202611485Y-79351200D01*
X202668628Y-79322628D01*
X202782914Y-79322628D01*
X202840057Y-79351200D01*
X203382914Y-79322628D02*
X203382914Y-79722628D01*
X203240057Y-79094057D02*
X203097200Y-79522628D01*
X203468628Y-79522628D01*
X195220057Y-77182628D02*
X195220057Y-76582628D01*
X195220057Y-77154057D02*
X195162914Y-77182628D01*
X195048628Y-77182628D01*
X194991485Y-77154057D01*
X194962914Y-77125485D01*
X194934342Y-77068342D01*
X194934342Y-76896914D01*
X194962914Y-76839771D01*
X194991485Y-76811200D01*
X195048628Y-76782628D01*
X195162914Y-76782628D01*
X195220057Y-76811200D01*
X195791485Y-76582628D02*
X195505771Y-76582628D01*
X195477200Y-76868342D01*
X195505771Y-76839771D01*
X195562914Y-76811200D01*
X195705771Y-76811200D01*
X195762914Y-76839771D01*
X195791485Y-76868342D01*
X195820057Y-76925485D01*
X195820057Y-77068342D01*
X195791485Y-77125485D01*
X195762914Y-77154057D01*
X195705771Y-77182628D01*
X195562914Y-77182628D01*
X195505771Y-77154057D01*
X195477200Y-77125485D01*
X202840057Y-77233428D02*
X202840057Y-76633428D01*
X202840057Y-77204857D02*
X202782914Y-77233428D01*
X202668628Y-77233428D01*
X202611485Y-77204857D01*
X202582914Y-77176285D01*
X202554342Y-77119142D01*
X202554342Y-76947714D01*
X202582914Y-76890571D01*
X202611485Y-76862000D01*
X202668628Y-76833428D01*
X202782914Y-76833428D01*
X202840057Y-76862000D01*
X203382914Y-76633428D02*
X203268628Y-76633428D01*
X203211485Y-76662000D01*
X203182914Y-76690571D01*
X203125771Y-76776285D01*
X203097200Y-76890571D01*
X203097200Y-77119142D01*
X203125771Y-77176285D01*
X203154342Y-77204857D01*
X203211485Y-77233428D01*
X203325771Y-77233428D01*
X203382914Y-77204857D01*
X203411485Y-77176285D01*
X203440057Y-77119142D01*
X203440057Y-76976285D01*
X203411485Y-76919142D01*
X203382914Y-76890571D01*
X203325771Y-76862000D01*
X203211485Y-76862000D01*
X203154342Y-76890571D01*
X203125771Y-76919142D01*
X203097200Y-76976285D01*
X195220057Y-74642628D02*
X195220057Y-74042628D01*
X195220057Y-74614057D02*
X195162914Y-74642628D01*
X195048628Y-74642628D01*
X194991485Y-74614057D01*
X194962914Y-74585485D01*
X194934342Y-74528342D01*
X194934342Y-74356914D01*
X194962914Y-74299771D01*
X194991485Y-74271200D01*
X195048628Y-74242628D01*
X195162914Y-74242628D01*
X195220057Y-74271200D01*
X195448628Y-74042628D02*
X195848628Y-74042628D01*
X195591485Y-74642628D01*
X177592057Y-79824228D02*
X177592057Y-79224228D01*
X177592057Y-79795657D02*
X177534914Y-79824228D01*
X177420628Y-79824228D01*
X177363485Y-79795657D01*
X177334914Y-79767085D01*
X177306342Y-79709942D01*
X177306342Y-79538514D01*
X177334914Y-79481371D01*
X177363485Y-79452800D01*
X177420628Y-79424228D01*
X177534914Y-79424228D01*
X177592057Y-79452800D01*
X177963485Y-79481371D02*
X177906342Y-79452800D01*
X177877771Y-79424228D01*
X177849200Y-79367085D01*
X177849200Y-79338514D01*
X177877771Y-79281371D01*
X177906342Y-79252800D01*
X177963485Y-79224228D01*
X178077771Y-79224228D01*
X178134914Y-79252800D01*
X178163485Y-79281371D01*
X178192057Y-79338514D01*
X178192057Y-79367085D01*
X178163485Y-79424228D01*
X178134914Y-79452800D01*
X178077771Y-79481371D01*
X177963485Y-79481371D01*
X177906342Y-79509942D01*
X177877771Y-79538514D01*
X177849200Y-79595657D01*
X177849200Y-79709942D01*
X177877771Y-79767085D01*
X177906342Y-79795657D01*
X177963485Y-79824228D01*
X178077771Y-79824228D01*
X178134914Y-79795657D01*
X178163485Y-79767085D01*
X178192057Y-79709942D01*
X178192057Y-79595657D01*
X178163485Y-79538514D01*
X178134914Y-79509942D01*
X178077771Y-79481371D01*
X170022857Y-77284228D02*
X170022857Y-76684228D01*
X170022857Y-77255657D02*
X169965714Y-77284228D01*
X169851428Y-77284228D01*
X169794285Y-77255657D01*
X169765714Y-77227085D01*
X169737142Y-77169942D01*
X169737142Y-76998514D01*
X169765714Y-76941371D01*
X169794285Y-76912800D01*
X169851428Y-76884228D01*
X169965714Y-76884228D01*
X170022857Y-76912800D01*
X170337142Y-77284228D02*
X170451428Y-77284228D01*
X170508571Y-77255657D01*
X170537142Y-77227085D01*
X170594285Y-77141371D01*
X170622857Y-77027085D01*
X170622857Y-76798514D01*
X170594285Y-76741371D01*
X170565714Y-76712800D01*
X170508571Y-76684228D01*
X170394285Y-76684228D01*
X170337142Y-76712800D01*
X170308571Y-76741371D01*
X170280000Y-76798514D01*
X170280000Y-76941371D01*
X170308571Y-76998514D01*
X170337142Y-77027085D01*
X170394285Y-77055657D01*
X170508571Y-77055657D01*
X170565714Y-77027085D01*
X170594285Y-76998514D01*
X170622857Y-76941371D01*
X177611142Y-77284228D02*
X177611142Y-76684228D01*
X177611142Y-77255657D02*
X177554000Y-77284228D01*
X177439714Y-77284228D01*
X177382571Y-77255657D01*
X177354000Y-77227085D01*
X177325428Y-77169942D01*
X177325428Y-76998514D01*
X177354000Y-76941371D01*
X177382571Y-76912800D01*
X177439714Y-76884228D01*
X177554000Y-76884228D01*
X177611142Y-76912800D01*
X178211142Y-77284228D02*
X177868285Y-77284228D01*
X178039714Y-77284228D02*
X178039714Y-76684228D01*
X177982571Y-76769942D01*
X177925428Y-76827085D01*
X177868285Y-76855657D01*
X178582571Y-76684228D02*
X178639714Y-76684228D01*
X178696857Y-76712800D01*
X178725428Y-76741371D01*
X178754000Y-76798514D01*
X178782571Y-76912800D01*
X178782571Y-77055657D01*
X178754000Y-77169942D01*
X178725428Y-77227085D01*
X178696857Y-77255657D01*
X178639714Y-77284228D01*
X178582571Y-77284228D01*
X178525428Y-77255657D01*
X178496857Y-77227085D01*
X178468285Y-77169942D01*
X178439714Y-77055657D01*
X178439714Y-76912800D01*
X178468285Y-76798514D01*
X178496857Y-76741371D01*
X178525428Y-76712800D01*
X178582571Y-76684228D01*
X169991142Y-74744228D02*
X169991142Y-74144228D01*
X169991142Y-74715657D02*
X169934000Y-74744228D01*
X169819714Y-74744228D01*
X169762571Y-74715657D01*
X169734000Y-74687085D01*
X169705428Y-74629942D01*
X169705428Y-74458514D01*
X169734000Y-74401371D01*
X169762571Y-74372800D01*
X169819714Y-74344228D01*
X169934000Y-74344228D01*
X169991142Y-74372800D01*
X170591142Y-74744228D02*
X170248285Y-74744228D01*
X170419714Y-74744228D02*
X170419714Y-74144228D01*
X170362571Y-74229942D01*
X170305428Y-74287085D01*
X170248285Y-74315657D01*
X171162571Y-74744228D02*
X170819714Y-74744228D01*
X170991142Y-74744228D02*
X170991142Y-74144228D01*
X170934000Y-74229942D01*
X170876857Y-74287085D01*
X170819714Y-74315657D01*
X152211142Y-79824228D02*
X152211142Y-79224228D01*
X152211142Y-79795657D02*
X152154000Y-79824228D01*
X152039714Y-79824228D01*
X151982571Y-79795657D01*
X151954000Y-79767085D01*
X151925428Y-79709942D01*
X151925428Y-79538514D01*
X151954000Y-79481371D01*
X151982571Y-79452800D01*
X152039714Y-79424228D01*
X152154000Y-79424228D01*
X152211142Y-79452800D01*
X152811142Y-79824228D02*
X152468285Y-79824228D01*
X152639714Y-79824228D02*
X152639714Y-79224228D01*
X152582571Y-79309942D01*
X152525428Y-79367085D01*
X152468285Y-79395657D01*
X153039714Y-79281371D02*
X153068285Y-79252800D01*
X153125428Y-79224228D01*
X153268285Y-79224228D01*
X153325428Y-79252800D01*
X153354000Y-79281371D01*
X153382571Y-79338514D01*
X153382571Y-79395657D01*
X153354000Y-79481371D01*
X153011142Y-79824228D01*
X153382571Y-79824228D01*
X144591142Y-77284228D02*
X144591142Y-76684228D01*
X144591142Y-77255657D02*
X144534000Y-77284228D01*
X144419714Y-77284228D01*
X144362571Y-77255657D01*
X144334000Y-77227085D01*
X144305428Y-77169942D01*
X144305428Y-76998514D01*
X144334000Y-76941371D01*
X144362571Y-76912800D01*
X144419714Y-76884228D01*
X144534000Y-76884228D01*
X144591142Y-76912800D01*
X145191142Y-77284228D02*
X144848285Y-77284228D01*
X145019714Y-77284228D02*
X145019714Y-76684228D01*
X144962571Y-76769942D01*
X144905428Y-76827085D01*
X144848285Y-76855657D01*
X145391142Y-76684228D02*
X145762571Y-76684228D01*
X145562571Y-76912800D01*
X145648285Y-76912800D01*
X145705428Y-76941371D01*
X145734000Y-76969942D01*
X145762571Y-77027085D01*
X145762571Y-77169942D01*
X145734000Y-77227085D01*
X145705428Y-77255657D01*
X145648285Y-77284228D01*
X145476857Y-77284228D01*
X145419714Y-77255657D01*
X145391142Y-77227085D01*
X152211142Y-77284228D02*
X152211142Y-76684228D01*
X152211142Y-77255657D02*
X152154000Y-77284228D01*
X152039714Y-77284228D01*
X151982571Y-77255657D01*
X151954000Y-77227085D01*
X151925428Y-77169942D01*
X151925428Y-76998514D01*
X151954000Y-76941371D01*
X151982571Y-76912800D01*
X152039714Y-76884228D01*
X152154000Y-76884228D01*
X152211142Y-76912800D01*
X152811142Y-77284228D02*
X152468285Y-77284228D01*
X152639714Y-77284228D02*
X152639714Y-76684228D01*
X152582571Y-76769942D01*
X152525428Y-76827085D01*
X152468285Y-76855657D01*
X153325428Y-76884228D02*
X153325428Y-77284228D01*
X153182571Y-76655657D02*
X153039714Y-77084228D01*
X153411142Y-77084228D01*
X144591142Y-74744228D02*
X144591142Y-74144228D01*
X144591142Y-74715657D02*
X144534000Y-74744228D01*
X144419714Y-74744228D01*
X144362571Y-74715657D01*
X144334000Y-74687085D01*
X144305428Y-74629942D01*
X144305428Y-74458514D01*
X144334000Y-74401371D01*
X144362571Y-74372800D01*
X144419714Y-74344228D01*
X144534000Y-74344228D01*
X144591142Y-74372800D01*
X145191142Y-74744228D02*
X144848285Y-74744228D01*
X145019714Y-74744228D02*
X145019714Y-74144228D01*
X144962571Y-74229942D01*
X144905428Y-74287085D01*
X144848285Y-74315657D01*
X145734000Y-74144228D02*
X145448285Y-74144228D01*
X145419714Y-74429942D01*
X145448285Y-74401371D01*
X145505428Y-74372800D01*
X145648285Y-74372800D01*
X145705428Y-74401371D01*
X145734000Y-74429942D01*
X145762571Y-74487085D01*
X145762571Y-74629942D01*
X145734000Y-74687085D01*
X145705428Y-74715657D01*
X145648285Y-74744228D01*
X145505428Y-74744228D01*
X145448285Y-74715657D01*
X145419714Y-74687085D01*
X144846800Y-81735657D02*
X144332514Y-82507085D01*
X145046800Y-82364228D02*
X145046800Y-81764228D01*
X145046800Y-81992800D02*
X145103942Y-81964228D01*
X145218228Y-81964228D01*
X145275371Y-81992800D01*
X145303942Y-82021371D01*
X145332514Y-82078514D01*
X145332514Y-82249942D01*
X145303942Y-82307085D01*
X145275371Y-82335657D01*
X145218228Y-82364228D01*
X145103942Y-82364228D01*
X145046800Y-82335657D01*
X145589657Y-82364228D02*
X145589657Y-81964228D01*
X145589657Y-82078514D02*
X145618228Y-82021371D01*
X145646800Y-81992800D01*
X145703942Y-81964228D01*
X145761085Y-81964228D01*
X146218228Y-82364228D02*
X146218228Y-82049942D01*
X146189657Y-81992800D01*
X146132514Y-81964228D01*
X146018228Y-81964228D01*
X145961085Y-81992800D01*
X146218228Y-82335657D02*
X146161085Y-82364228D01*
X146018228Y-82364228D01*
X145961085Y-82335657D01*
X145932514Y-82278514D01*
X145932514Y-82221371D01*
X145961085Y-82164228D01*
X146018228Y-82135657D01*
X146161085Y-82135657D01*
X146218228Y-82107085D01*
X146475371Y-82335657D02*
X146532514Y-82364228D01*
X146646800Y-82364228D01*
X146703942Y-82335657D01*
X146732514Y-82278514D01*
X146732514Y-82249942D01*
X146703942Y-82192800D01*
X146646800Y-82164228D01*
X146561085Y-82164228D01*
X146503942Y-82135657D01*
X146475371Y-82078514D01*
X146475371Y-82049942D01*
X146503942Y-81992800D01*
X146561085Y-81964228D01*
X146646800Y-81964228D01*
X146703942Y-81992800D01*
X147103942Y-81764228D02*
X147161085Y-81764228D01*
X147218228Y-81792800D01*
X147246800Y-81821371D01*
X147275371Y-81878514D01*
X147303942Y-81992800D01*
X147303942Y-82135657D01*
X147275371Y-82249942D01*
X147246800Y-82307085D01*
X147218228Y-82335657D01*
X147161085Y-82364228D01*
X147103942Y-82364228D01*
X147046800Y-82335657D01*
X147018228Y-82307085D01*
X146989657Y-82249942D01*
X146961085Y-82135657D01*
X146961085Y-81992800D01*
X146989657Y-81878514D01*
X147018228Y-81821371D01*
X147046800Y-81792800D01*
X147103942Y-81764228D01*
X229378000Y-80110057D02*
X228863714Y-80881485D01*
X229578000Y-80738628D02*
X229578000Y-80138628D01*
X229578000Y-80367200D02*
X229635142Y-80338628D01*
X229749428Y-80338628D01*
X229806571Y-80367200D01*
X229835142Y-80395771D01*
X229863714Y-80452914D01*
X229863714Y-80624342D01*
X229835142Y-80681485D01*
X229806571Y-80710057D01*
X229749428Y-80738628D01*
X229635142Y-80738628D01*
X229578000Y-80710057D01*
X230120857Y-80738628D02*
X230120857Y-80338628D01*
X230120857Y-80452914D02*
X230149428Y-80395771D01*
X230178000Y-80367200D01*
X230235142Y-80338628D01*
X230292285Y-80338628D01*
X230749428Y-80738628D02*
X230749428Y-80424342D01*
X230720857Y-80367200D01*
X230663714Y-80338628D01*
X230549428Y-80338628D01*
X230492285Y-80367200D01*
X230749428Y-80710057D02*
X230692285Y-80738628D01*
X230549428Y-80738628D01*
X230492285Y-80710057D01*
X230463714Y-80652914D01*
X230463714Y-80595771D01*
X230492285Y-80538628D01*
X230549428Y-80510057D01*
X230692285Y-80510057D01*
X230749428Y-80481485D01*
X231006571Y-80710057D02*
X231063714Y-80738628D01*
X231178000Y-80738628D01*
X231235142Y-80710057D01*
X231263714Y-80652914D01*
X231263714Y-80624342D01*
X231235142Y-80567200D01*
X231178000Y-80538628D01*
X231092285Y-80538628D01*
X231035142Y-80510057D01*
X231006571Y-80452914D01*
X231006571Y-80424342D01*
X231035142Y-80367200D01*
X231092285Y-80338628D01*
X231178000Y-80338628D01*
X231235142Y-80367200D01*
X231835142Y-80738628D02*
X231492285Y-80738628D01*
X231663714Y-80738628D02*
X231663714Y-80138628D01*
X231606571Y-80224342D01*
X231549428Y-80281485D01*
X231492285Y-80310057D01*
X152427085Y-81786457D02*
X151912800Y-82557885D01*
X152884228Y-82015028D02*
X152884228Y-82415028D01*
X152627085Y-82015028D02*
X152627085Y-82329314D01*
X152655657Y-82386457D01*
X152712800Y-82415028D01*
X152798514Y-82415028D01*
X152855657Y-82386457D01*
X152884228Y-82357885D01*
X153427085Y-82386457D02*
X153369942Y-82415028D01*
X153255657Y-82415028D01*
X153198514Y-82386457D01*
X153169942Y-82357885D01*
X153141371Y-82300742D01*
X153141371Y-82129314D01*
X153169942Y-82072171D01*
X153198514Y-82043600D01*
X153255657Y-82015028D01*
X153369942Y-82015028D01*
X153427085Y-82043600D01*
X153941371Y-82415028D02*
X153941371Y-82100742D01*
X153912800Y-82043600D01*
X153855657Y-82015028D01*
X153741371Y-82015028D01*
X153684228Y-82043600D01*
X153941371Y-82386457D02*
X153884228Y-82415028D01*
X153741371Y-82415028D01*
X153684228Y-82386457D01*
X153655657Y-82329314D01*
X153655657Y-82272171D01*
X153684228Y-82215028D01*
X153741371Y-82186457D01*
X153884228Y-82186457D01*
X153941371Y-82157885D01*
X154198514Y-82386457D02*
X154255657Y-82415028D01*
X154369942Y-82415028D01*
X154427085Y-82386457D01*
X154455657Y-82329314D01*
X154455657Y-82300742D01*
X154427085Y-82243600D01*
X154369942Y-82215028D01*
X154284228Y-82215028D01*
X154227085Y-82186457D01*
X154198514Y-82129314D01*
X154198514Y-82100742D01*
X154227085Y-82043600D01*
X154284228Y-82015028D01*
X154369942Y-82015028D01*
X154427085Y-82043600D01*
X234888171Y-81684857D02*
X234373885Y-82456285D01*
X235173885Y-82313428D02*
X235116742Y-82284857D01*
X235088171Y-82227714D01*
X235088171Y-81713428D01*
X235659600Y-82284857D02*
X235602457Y-82313428D01*
X235488171Y-82313428D01*
X235431028Y-82284857D01*
X235402457Y-82256285D01*
X235373885Y-82199142D01*
X235373885Y-82027714D01*
X235402457Y-81970571D01*
X235431028Y-81942000D01*
X235488171Y-81913428D01*
X235602457Y-81913428D01*
X235659600Y-81942000D01*
X236173885Y-82313428D02*
X236173885Y-81999142D01*
X236145314Y-81942000D01*
X236088171Y-81913428D01*
X235973885Y-81913428D01*
X235916742Y-81942000D01*
X236173885Y-82284857D02*
X236116742Y-82313428D01*
X235973885Y-82313428D01*
X235916742Y-82284857D01*
X235888171Y-82227714D01*
X235888171Y-82170571D01*
X235916742Y-82113428D01*
X235973885Y-82084857D01*
X236116742Y-82084857D01*
X236173885Y-82056285D01*
X236431028Y-82284857D02*
X236488171Y-82313428D01*
X236602457Y-82313428D01*
X236659600Y-82284857D01*
X236688171Y-82227714D01*
X236688171Y-82199142D01*
X236659600Y-82142000D01*
X236602457Y-82113428D01*
X236516742Y-82113428D01*
X236459600Y-82084857D01*
X236431028Y-82027714D01*
X236431028Y-81999142D01*
X236459600Y-81942000D01*
X236516742Y-81913428D01*
X236602457Y-81913428D01*
X236659600Y-81942000D01*
X144821314Y-79195657D02*
X144307028Y-79967085D01*
X144964171Y-79424228D02*
X145078457Y-79824228D01*
X145192742Y-79538514D01*
X145307028Y-79824228D01*
X145421314Y-79424228D01*
X145878457Y-79795657D02*
X145821314Y-79824228D01*
X145707028Y-79824228D01*
X145649885Y-79795657D01*
X145621314Y-79738514D01*
X145621314Y-79509942D01*
X145649885Y-79452800D01*
X145707028Y-79424228D01*
X145821314Y-79424228D01*
X145878457Y-79452800D01*
X145907028Y-79509942D01*
X145907028Y-79567085D01*
X145621314Y-79624228D01*
X144572057Y-87444228D02*
X144572057Y-87129942D01*
X144543485Y-87072800D01*
X144486342Y-87044228D01*
X144372057Y-87044228D01*
X144314914Y-87072800D01*
X144572057Y-87415657D02*
X144514914Y-87444228D01*
X144372057Y-87444228D01*
X144314914Y-87415657D01*
X144286342Y-87358514D01*
X144286342Y-87301371D01*
X144314914Y-87244228D01*
X144372057Y-87215657D01*
X144514914Y-87215657D01*
X144572057Y-87187085D01*
X144972057Y-86844228D02*
X145029200Y-86844228D01*
X145086342Y-86872800D01*
X145114914Y-86901371D01*
X145143485Y-86958514D01*
X145172057Y-87072800D01*
X145172057Y-87215657D01*
X145143485Y-87329942D01*
X145114914Y-87387085D01*
X145086342Y-87415657D01*
X145029200Y-87444228D01*
X144972057Y-87444228D01*
X144914914Y-87415657D01*
X144886342Y-87387085D01*
X144857771Y-87329942D01*
X144829200Y-87215657D01*
X144829200Y-87072800D01*
X144857771Y-86958514D01*
X144886342Y-86901371D01*
X144914914Y-86872800D01*
X144972057Y-86844228D01*
X144572057Y-89984228D02*
X144572057Y-89669942D01*
X144543485Y-89612800D01*
X144486342Y-89584228D01*
X144372057Y-89584228D01*
X144314914Y-89612800D01*
X144572057Y-89955657D02*
X144514914Y-89984228D01*
X144372057Y-89984228D01*
X144314914Y-89955657D01*
X144286342Y-89898514D01*
X144286342Y-89841371D01*
X144314914Y-89784228D01*
X144372057Y-89755657D01*
X144514914Y-89755657D01*
X144572057Y-89727085D01*
X145172057Y-89984228D02*
X144829200Y-89984228D01*
X145000628Y-89984228D02*
X145000628Y-89384228D01*
X144943485Y-89469942D01*
X144886342Y-89527085D01*
X144829200Y-89555657D01*
X144572057Y-92524228D02*
X144572057Y-92209942D01*
X144543485Y-92152800D01*
X144486342Y-92124228D01*
X144372057Y-92124228D01*
X144314914Y-92152800D01*
X144572057Y-92495657D02*
X144514914Y-92524228D01*
X144372057Y-92524228D01*
X144314914Y-92495657D01*
X144286342Y-92438514D01*
X144286342Y-92381371D01*
X144314914Y-92324228D01*
X144372057Y-92295657D01*
X144514914Y-92295657D01*
X144572057Y-92267085D01*
X144829200Y-91981371D02*
X144857771Y-91952800D01*
X144914914Y-91924228D01*
X145057771Y-91924228D01*
X145114914Y-91952800D01*
X145143485Y-91981371D01*
X145172057Y-92038514D01*
X145172057Y-92095657D01*
X145143485Y-92181371D01*
X144800628Y-92524228D01*
X145172057Y-92524228D01*
X144572057Y-95064228D02*
X144572057Y-94749942D01*
X144543485Y-94692800D01*
X144486342Y-94664228D01*
X144372057Y-94664228D01*
X144314914Y-94692800D01*
X144572057Y-95035657D02*
X144514914Y-95064228D01*
X144372057Y-95064228D01*
X144314914Y-95035657D01*
X144286342Y-94978514D01*
X144286342Y-94921371D01*
X144314914Y-94864228D01*
X144372057Y-94835657D01*
X144514914Y-94835657D01*
X144572057Y-94807085D01*
X144800628Y-94464228D02*
X145172057Y-94464228D01*
X144972057Y-94692800D01*
X145057771Y-94692800D01*
X145114914Y-94721371D01*
X145143485Y-94749942D01*
X145172057Y-94807085D01*
X145172057Y-94949942D01*
X145143485Y-95007085D01*
X145114914Y-95035657D01*
X145057771Y-95064228D01*
X144886342Y-95064228D01*
X144829200Y-95035657D01*
X144800628Y-95007085D01*
X148686857Y-97604228D02*
X148686857Y-97289942D01*
X148658285Y-97232800D01*
X148601142Y-97204228D01*
X148486857Y-97204228D01*
X148429714Y-97232800D01*
X148686857Y-97575657D02*
X148629714Y-97604228D01*
X148486857Y-97604228D01*
X148429714Y-97575657D01*
X148401142Y-97518514D01*
X148401142Y-97461371D01*
X148429714Y-97404228D01*
X148486857Y-97375657D01*
X148629714Y-97375657D01*
X148686857Y-97347085D01*
X149229714Y-97204228D02*
X149229714Y-97604228D01*
X149086857Y-96975657D02*
X148944000Y-97404228D01*
X149315428Y-97404228D01*
X148737657Y-95115028D02*
X148737657Y-94800742D01*
X148709085Y-94743600D01*
X148651942Y-94715028D01*
X148537657Y-94715028D01*
X148480514Y-94743600D01*
X148737657Y-95086457D02*
X148680514Y-95115028D01*
X148537657Y-95115028D01*
X148480514Y-95086457D01*
X148451942Y-95029314D01*
X148451942Y-94972171D01*
X148480514Y-94915028D01*
X148537657Y-94886457D01*
X148680514Y-94886457D01*
X148737657Y-94857885D01*
X149309085Y-94515028D02*
X149023371Y-94515028D01*
X148994800Y-94800742D01*
X149023371Y-94772171D01*
X149080514Y-94743600D01*
X149223371Y-94743600D01*
X149280514Y-94772171D01*
X149309085Y-94800742D01*
X149337657Y-94857885D01*
X149337657Y-95000742D01*
X149309085Y-95057885D01*
X149280514Y-95086457D01*
X149223371Y-95115028D01*
X149080514Y-95115028D01*
X149023371Y-95086457D01*
X148994800Y-95057885D01*
X148737657Y-92524228D02*
X148737657Y-92209942D01*
X148709085Y-92152800D01*
X148651942Y-92124228D01*
X148537657Y-92124228D01*
X148480514Y-92152800D01*
X148737657Y-92495657D02*
X148680514Y-92524228D01*
X148537657Y-92524228D01*
X148480514Y-92495657D01*
X148451942Y-92438514D01*
X148451942Y-92381371D01*
X148480514Y-92324228D01*
X148537657Y-92295657D01*
X148680514Y-92295657D01*
X148737657Y-92267085D01*
X149280514Y-91924228D02*
X149166228Y-91924228D01*
X149109085Y-91952800D01*
X149080514Y-91981371D01*
X149023371Y-92067085D01*
X148994800Y-92181371D01*
X148994800Y-92409942D01*
X149023371Y-92467085D01*
X149051942Y-92495657D01*
X149109085Y-92524228D01*
X149223371Y-92524228D01*
X149280514Y-92495657D01*
X149309085Y-92467085D01*
X149337657Y-92409942D01*
X149337657Y-92267085D01*
X149309085Y-92209942D01*
X149280514Y-92181371D01*
X149223371Y-92152800D01*
X149109085Y-92152800D01*
X149051942Y-92181371D01*
X149023371Y-92209942D01*
X148994800Y-92267085D01*
X148686857Y-90035028D02*
X148686857Y-89720742D01*
X148658285Y-89663600D01*
X148601142Y-89635028D01*
X148486857Y-89635028D01*
X148429714Y-89663600D01*
X148686857Y-90006457D02*
X148629714Y-90035028D01*
X148486857Y-90035028D01*
X148429714Y-90006457D01*
X148401142Y-89949314D01*
X148401142Y-89892171D01*
X148429714Y-89835028D01*
X148486857Y-89806457D01*
X148629714Y-89806457D01*
X148686857Y-89777885D01*
X148915428Y-89435028D02*
X149315428Y-89435028D01*
X149058285Y-90035028D01*
X148737657Y-87495028D02*
X148737657Y-87180742D01*
X148709085Y-87123600D01*
X148651942Y-87095028D01*
X148537657Y-87095028D01*
X148480514Y-87123600D01*
X148737657Y-87466457D02*
X148680514Y-87495028D01*
X148537657Y-87495028D01*
X148480514Y-87466457D01*
X148451942Y-87409314D01*
X148451942Y-87352171D01*
X148480514Y-87295028D01*
X148537657Y-87266457D01*
X148680514Y-87266457D01*
X148737657Y-87237885D01*
X149109085Y-87152171D02*
X149051942Y-87123600D01*
X149023371Y-87095028D01*
X148994800Y-87037885D01*
X148994800Y-87009314D01*
X149023371Y-86952171D01*
X149051942Y-86923600D01*
X149109085Y-86895028D01*
X149223371Y-86895028D01*
X149280514Y-86923600D01*
X149309085Y-86952171D01*
X149337657Y-87009314D01*
X149337657Y-87037885D01*
X149309085Y-87095028D01*
X149280514Y-87123600D01*
X149223371Y-87152171D01*
X149109085Y-87152171D01*
X149051942Y-87180742D01*
X149023371Y-87209314D01*
X148994800Y-87266457D01*
X148994800Y-87380742D01*
X149023371Y-87437885D01*
X149051942Y-87466457D01*
X149109085Y-87495028D01*
X149223371Y-87495028D01*
X149280514Y-87466457D01*
X149309085Y-87437885D01*
X149337657Y-87380742D01*
X149337657Y-87266457D01*
X149309085Y-87209314D01*
X149280514Y-87180742D01*
X149223371Y-87152171D01*
X202836914Y-74242628D02*
X202836914Y-74728342D01*
X202808342Y-74785485D01*
X202779771Y-74814057D01*
X202722628Y-74842628D01*
X202636914Y-74842628D01*
X202579771Y-74814057D01*
X202836914Y-74614057D02*
X202779771Y-74642628D01*
X202665485Y-74642628D01*
X202608342Y-74614057D01*
X202579771Y-74585485D01*
X202551200Y-74528342D01*
X202551200Y-74356914D01*
X202579771Y-74299771D01*
X202608342Y-74271200D01*
X202665485Y-74242628D01*
X202779771Y-74242628D01*
X202836914Y-74271200D01*
X203122628Y-74242628D02*
X203122628Y-74642628D01*
X203122628Y-74299771D02*
X203151200Y-74271200D01*
X203208342Y-74242628D01*
X203294057Y-74242628D01*
X203351200Y-74271200D01*
X203379771Y-74328342D01*
X203379771Y-74642628D01*
X203922628Y-74642628D02*
X203922628Y-74042628D01*
X203922628Y-74614057D02*
X203865485Y-74642628D01*
X203751200Y-74642628D01*
X203694057Y-74614057D01*
X203665485Y-74585485D01*
X203636914Y-74528342D01*
X203636914Y-74356914D01*
X203665485Y-74299771D01*
X203694057Y-74271200D01*
X203751200Y-74242628D01*
X203865485Y-74242628D01*
X203922628Y-74271200D01*
X227226285Y-49884000D02*
X227254857Y-49912571D01*
X227283428Y-49998285D01*
X227283428Y-50055428D01*
X227254857Y-50141142D01*
X227197714Y-50198285D01*
X227140571Y-50226857D01*
X227026285Y-50255428D01*
X226940571Y-50255428D01*
X226826285Y-50226857D01*
X226769142Y-50198285D01*
X226712000Y-50141142D01*
X226683428Y-50055428D01*
X226683428Y-49998285D01*
X226712000Y-49912571D01*
X226740571Y-49884000D01*
X226683428Y-49341142D02*
X226683428Y-49626857D01*
X226969142Y-49655428D01*
X226940571Y-49626857D01*
X226912000Y-49569714D01*
X226912000Y-49426857D01*
X226940571Y-49369714D01*
X226969142Y-49341142D01*
X227026285Y-49312571D01*
X227169142Y-49312571D01*
X227226285Y-49341142D01*
X227254857Y-49369714D01*
X227283428Y-49426857D01*
X227283428Y-49569714D01*
X227254857Y-49626857D01*
X227226285Y-49655428D01*
X220447714Y-33174000D02*
X220419142Y-33145428D01*
X220390571Y-33059714D01*
X220390571Y-33002571D01*
X220419142Y-32916857D01*
X220476285Y-32859714D01*
X220533428Y-32831142D01*
X220647714Y-32802571D01*
X220733428Y-32802571D01*
X220847714Y-32831142D01*
X220904857Y-32859714D01*
X220962000Y-32916857D01*
X220990571Y-33002571D01*
X220990571Y-33059714D01*
X220962000Y-33145428D01*
X220933428Y-33174000D01*
X220990571Y-33688285D02*
X220990571Y-33574000D01*
X220962000Y-33516857D01*
X220933428Y-33488285D01*
X220847714Y-33431142D01*
X220733428Y-33402571D01*
X220504857Y-33402571D01*
X220447714Y-33431142D01*
X220419142Y-33459714D01*
X220390571Y-33516857D01*
X220390571Y-33631142D01*
X220419142Y-33688285D01*
X220447714Y-33716857D01*
X220504857Y-33745428D01*
X220647714Y-33745428D01*
X220704857Y-33716857D01*
X220733428Y-33688285D01*
X220762000Y-33631142D01*
X220762000Y-33516857D01*
X220733428Y-33459714D01*
X220704857Y-33431142D01*
X220647714Y-33402571D01*
D11*
X183264619Y-40767095D02*
X182455095Y-40767095D01*
X182359857Y-40814714D01*
X182312238Y-40862333D01*
X182264619Y-40957571D01*
X182264619Y-41148047D01*
X182312238Y-41243285D01*
X182359857Y-41290904D01*
X182455095Y-41338523D01*
X183264619Y-41338523D01*
X182264619Y-42338523D02*
X182264619Y-41767095D01*
X182264619Y-42052809D02*
X183264619Y-42052809D01*
X183121761Y-41957571D01*
X183026523Y-41862333D01*
X182978904Y-41767095D01*
X211204619Y-40767095D02*
X210395095Y-40767095D01*
X210299857Y-40814714D01*
X210252238Y-40862333D01*
X210204619Y-40957571D01*
X210204619Y-41148047D01*
X210252238Y-41243285D01*
X210299857Y-41290904D01*
X210395095Y-41338523D01*
X211204619Y-41338523D01*
X211109380Y-41767095D02*
X211157000Y-41814714D01*
X211204619Y-41909952D01*
X211204619Y-42148047D01*
X211157000Y-42243285D01*
X211109380Y-42290904D01*
X211014142Y-42338523D01*
X210918904Y-42338523D01*
X210776047Y-42290904D01*
X210204619Y-41719476D01*
X210204619Y-42338523D01*
M02*
